<mxfile host="app.diagrams.net" modified="2021-02-13T00:08:34.626Z" agent="5.0 (Windows NT 10.0; Win64; x64) AppleWebKit/537.36 (KHTML, like Gecko) Chrome/85.0.4183.102 Safari/537.36" etag="izoNusW8tKH4H3qgsDQx" version="14.3.1" type="github">
  <diagram id="SCqkBrxXB9uGR9A7Ij0R" name="Page-1">
    <mxGraphModel dx="2574" dy="1404" grid="1" gridSize="10" guides="1" tooltips="1" connect="1" arrows="1" fold="1" page="1" pageScale="1" pageWidth="850" pageHeight="1100" math="0" shadow="0">
      <root>
        <mxCell id="0" />
        <mxCell id="1" parent="0" />
        <mxCell id="Mo0A9-6o7HakSVzytzav-15" value="" style="rounded=1;whiteSpace=wrap;html=1;" vertex="1" parent="1">
          <mxGeometry x="28" y="102" width="210" height="422" as="geometry" />
        </mxCell>
        <mxCell id="Mo0A9-6o7HakSVzytzav-18" value="" style="rounded=1;whiteSpace=wrap;html=1;" vertex="1" parent="1">
          <mxGeometry x="60" y="274" width="130" height="230" as="geometry" />
        </mxCell>
        <mxCell id="Mo0A9-6o7HakSVzytzav-23" style="edgeStyle=orthogonalEdgeStyle;rounded=0;orthogonalLoop=1;jettySize=auto;html=1;exitX=1;exitY=0.5;exitDx=0;exitDy=0;" edge="1" parent="1" source="Mo0A9-6o7HakSVzytzav-15" target="Mo0A9-6o7HakSVzytzav-22">
          <mxGeometry relative="1" as="geometry" />
        </mxCell>
        <mxCell id="Mo0A9-6o7HakSVzytzav-1" value="" style="shape=image;html=1;verticalAlign=top;verticalLabelPosition=bottom;labelBackgroundColor=#ffffff;imageAspect=0;aspect=fixed;image=https://cdn2.iconfinder.com/data/icons/amazon-aws-stencils/100/Storage__Content_Delivery_Amazon_S3_Bucket_with_Objects-128.png" vertex="1" parent="1">
          <mxGeometry x="50" y="110" width="128" height="128" as="geometry" />
        </mxCell>
        <mxCell id="Mo0A9-6o7HakSVzytzav-9" value="" style="image;html=1;image=img/lib/clip_art/computers/Database_Move_Stack_128x128.png" vertex="1" parent="1">
          <mxGeometry x="112" y="424" width="50" height="50" as="geometry" />
        </mxCell>
        <mxCell id="Mo0A9-6o7HakSVzytzav-10" value="" style="rounded=1;whiteSpace=wrap;html=1;" vertex="1" parent="1">
          <mxGeometry x="610" y="148" width="180" height="330" as="geometry" />
        </mxCell>
        <mxCell id="Mo0A9-6o7HakSVzytzav-11" value="" style="shape=image;html=1;verticalAlign=top;verticalLabelPosition=bottom;labelBackgroundColor=#ffffff;imageAspect=0;aspect=fixed;image=https://cdn2.iconfinder.com/data/icons/weather-blue-filled-line/32/weather_snow_snowflake_winter_cold_holiday_flake-128.png" vertex="1" parent="1">
          <mxGeometry x="720" y="155" width="38" height="38" as="geometry" />
        </mxCell>
        <mxCell id="Mo0A9-6o7HakSVzytzav-12" value="" style="image;html=1;image=img/lib/clip_art/computers/Database_Move_Stack_128x128.png" vertex="1" parent="1">
          <mxGeometry x="625" y="238" width="50" height="50" as="geometry" />
        </mxCell>
        <mxCell id="Mo0A9-6o7HakSVzytzav-13" value="" style="image;html=1;image=img/lib/clip_art/computers/Database_Move_Stack_128x128.png" vertex="1" parent="1">
          <mxGeometry x="708" y="230" width="50" height="50" as="geometry" />
        </mxCell>
        <mxCell id="Mo0A9-6o7HakSVzytzav-14" value="" style="image;html=1;image=img/lib/clip_art/computers/Database_Move_Stack_128x128.png" vertex="1" parent="1">
          <mxGeometry x="690" y="364" width="50" height="50" as="geometry" />
        </mxCell>
        <mxCell id="Mo0A9-6o7HakSVzytzav-17" value="Structure Data(Curated Bucket)" style="text;html=1;strokeColor=none;fillColor=none;align=center;verticalAlign=middle;whiteSpace=wrap;rounded=0;" vertex="1" parent="1">
          <mxGeometry x="64" y="230" width="100" height="20" as="geometry" />
        </mxCell>
        <mxCell id="Mo0A9-6o7HakSVzytzav-19" value="" style="image;html=1;image=img/lib/clip_art/computers/Database_Move_Stack_128x128.png" vertex="1" parent="1">
          <mxGeometry x="72" y="346" width="50" height="50" as="geometry" />
        </mxCell>
        <mxCell id="Mo0A9-6o7HakSVzytzav-20" value="" style="image;html=1;image=img/lib/clip_art/computers/Database_Move_Stack_128x128.png" vertex="1" parent="1">
          <mxGeometry x="132" y="346" width="50" height="50" as="geometry" />
        </mxCell>
        <mxCell id="Mo0A9-6o7HakSVzytzav-21" value="" style="shape=image;html=1;verticalAlign=top;verticalLabelPosition=bottom;labelBackgroundColor=#ffffff;imageAspect=0;aspect=fixed;image=https://cdn2.iconfinder.com/data/icons/weather-blue-filled-line/32/weather_snow_snowflake_winter_cold_holiday_flake-128.png" vertex="1" parent="1">
          <mxGeometry x="144" y="281" width="38" height="38" as="geometry" />
        </mxCell>
        <mxCell id="Mo0A9-6o7HakSVzytzav-24" style="edgeStyle=orthogonalEdgeStyle;rounded=0;orthogonalLoop=1;jettySize=auto;html=1;exitX=1;exitY=0.5;exitDx=0;exitDy=0;" edge="1" parent="1" source="Mo0A9-6o7HakSVzytzav-22" target="Mo0A9-6o7HakSVzytzav-10">
          <mxGeometry relative="1" as="geometry" />
        </mxCell>
        <mxCell id="Mo0A9-6o7HakSVzytzav-22" value="" style="shape=image;imageAspect=0;aspect=fixed;verticalLabelPosition=bottom;verticalAlign=top;image=data:image/png,iVBORw0KGgoAAAANSUhEUgAAAgAAAAIACAYAAAD0eNT6AAAABHNCSVQICAgIfAhkiAAAIABJREFUeJzs3XecVcX5P/DPM3POvVtoAipIkyYgilJ3aWLDFltiSSzRmKIm1kRjT4zGxBrzTWzRaKLGEvWniZqosSt9aYoVpAioiBSBXXb33ntmnt8fZxcQQXbv3u2f9+vFS9i995w5d9czz5l55hmAiIiIiIiIiIiIiIiIiIiIiIiIiIiIiIiIiIiIiIiIiIiIiIiIiIiIiIiIiIiIiIiIiIiIiIiIiIiIiIiIiIiIiIiIiIiIiIiIiIiIiIiIiIiIiIiIiIiIiIiIiIiIiIiIiIiIiIiIiIiIiIiIiIiIiIiIiIiIiIiIiIiIiIiIiIiIiIiIiIiIiIiIiIiIiIiIiIiIiIiIiIiIiIiIiIiIiIiIiIiIiIiIiIiIiIiIiIiIiIiIiIiIiIiIiIiIiIiIiIiIiIiIiIiIiIiIiIiIiIiIiIiIiIiIiIiIiIiIiIiIiIiIiIiIiIiIiIiIiIiIiIiIiIiIiIiIiIiIiIiIiIiIiIiIiIiIiIiIiIiIiIiIiIiIiIiIiIiIiIiIiIiIiIiIiIiIiIiIiIiIiIiIiIiIiIiIiIiIiIiIiIiIiIiIiIiIiIiIiIiIiIiIiIiIiIiIiIiIiIiIiIiIiIiIiIiIiIiIiIiIiIiIiIiIiIiIiIiIiIiIiIiIiIiIiIiIiIiIiIiIiIiIiIiIiIiIiIiIiIiIiIiIiIiIiIiIiIiIiIiIiIiIiIiIiIiIiIiIiIiIiIiIiIiIiIiIiIiIiIiIiIiIiIiIiIiIiIiIiIiIiIiIiIiIiIiIiIiIiIiIiIiIiIiIiIiIiIiIiIiIiIiIiIiIiIiIiIiIiIiIiIiIiIiIiIiIiIiIiIiIiIiIiIiIiIiIiKhGpLEbQERETY0CNwAoAJAEkAJwPsAuo2XhT5OIiAAosByY9e+zBu68YvpEE63fz0eZNjCCUKQ0FXacUtZ5zyl7d390Fk5k19ES8KdIRNTa3ahYbI85JfFZyQ+g2idAppsVJJ0EsHCAKpzXDGC/SNv8/5V3HPD4wFEv/Q8T2YU0Z/zpERG1Yreqtjv+kn43JKK1J6nN7yDqYH0GHoCTAAqBisAoECACVOEha70tePqz8x66ckSv/VY09jVQdhgAEBG1Un/XL9sdfNHed4S+7CRjrI07d4NIAggUFhEUAoECEHhYKIAQDl69T5uC592Ag67qfeb9b7E7aX74EyMiaoX+qNru+Iu63RFo+ruRTYbGRwAAA/+N71MIDDwECicBUhpOx4CJF/Y+628z2KU0L/xpERG1NjMUHz/W87akVvw0bQts0pUj0DQik4DuoFsQ9VAIvAQwcAjg4L2bvXbkj88adMofZjfQFVAOmMZuABERNSTFJ08NvKat+/JHMNYmXDkMHMptW3jYHb9bDCACqRop8Ap4mzd8p1kP/fZO1bb13XrKHQYAREStyOL/+96RYXrlmamgTb5XwMIjIwlYjWA1s8P3x3kAAqvxlEEkIVQViuiggy7f+1I8p/V9CZQjDACIiFqLuYpw2aSfigm6eMTz/U4sDDwMPLzseATAwEGgm15r4GE1ghibaJteedaCeUd+q56vgnKEAQARUaug+Pg/+59hkRkL9Qj9jp/2a3ZUQUYSEO8gqp0Lvpj7o39xKqBZYABARNQaXA2YLz86PkSmfaXkwUvucsCtOiiAyOYh0MpvDb1yyPkApwKaOgYAREStwIdtjjrKICpWGBhVaI5u/xKvCYCKgfgIMGEiWf7pyW/96zd75OQEVG8YABARtXQnKApWzT8mgO/oYBHUINmvNlQMFBIfVz1UzJ6dpj7wKzzOUYCmjAEAEVEL9/J9n3Uy0YZ9TNWwv0p1db/cEWhVIADABAgyG46Y/9FhJ3IqoOliAEBE1ML1vu0HE61GA765xl/uGJ+BGNsxf828i1YsfrVXA52WaokBABFRi6ZIbPi4SIC22kAP46aqtoBRPyr663k/4yhA08QAgIioJbsbMJkNg4xpuMrvTgJYzSBpHKRy1Qkf3vvTsQ12cqoxBgBERC3Ysv639YVqf9+At3tRhVGHSAEr6F344X8vxMMcBWhqGAAQEbVgZdNfHGDE79yQw/AqVXsGQGAEsK7ikCVLDzidUwFNCwMAIqIWS5FfsaKneJ/XsH3v5ukGr0Bg0C5v9TsXzJ//Uu+GbAV9MwYAREQtmE2tHywGYUP2/1pVHmjTvxXwaock//7zc/AzjgI0FQwAiIhaqtcA41N7mK065IalUAUCgc2rXPm9BSPOLWqkhtBWGAAQEbVQD++/vr341E7xkHzDBQBSNQaw6V8i8FCoMd2S7//3QiznKEBTwACAiKiFGnT3pf0B7eYBCBqqDNC2eRg4CVCYWX30or+N/ykTAhsfAwAiohZqpy8+2BOqOzXe8P9mViNYzSAdFBYE6xf9YJKWdWrsNrV2DACIiFokRV7Fl4MMkFeXAECQm47CSQDrI4gqAu9G9rqi6BLcyFGAxsQAgIioJZoAuPT6Xs4mxWa5+59AESFYC/WfGHUQRdbJhAKFMxaAIrAqiYqV33u/w1lMCGxEDACIiFqiqwDRdJdQM3ASZHUII4CX4M28Y675YaUkF8AARrPLJYiTAqt2I1QgMkHPNh89f3HLTgjUb/jT+LL7rSAioibtI3tPX9HM7gEcKpAPi6jWx3BeIPltV7bf/5yXllx6z+2Z6PPr8xEVZurYdSiABDKIvD9i8b1jf9wHem9DrlKoPwrMBVbMPn2/8s8+7o7UvruY9MZ+Rp2FwISa8V7ynOS1XVzW7qi3BnR95lWcCjTWtTMAICJqgSrnvjKgHVznCAEMXK3fLwKo+lRFXuc5gKD3BL3t45d7HBIJjszFE2yEAKH4Ardh8Tmfv/3EK132wZI6H7TBKTAPWDjnguHhktmjTUXffdxD0R7OVw4qENdePayx1ioMPAyMOlhfAVe23rcrXfbl0hXd5rjLO76QOu4fjw4aceqKhg4EGAAQEbU4ikTZhK6qJuFNAOvT8FW1+WvyXkAg8d82+LZd3gMAHCHw1x10f2bNvNH54jtlYKFQiAog2QUETgVJpPYsffSaUwH9bdMfBVDgDuCtgQ92K5jx8NC8L/tPsPeXjgR8HwPd1UATFoqMCQC1MEahqgAcQp+CkwAeFka8MYJO+ZKe6Cs/nRA8eukxi6+77899/qNPYnrDfQYMAIiIWqD8jZ8PUDFJ6OaCPDsiGlcMUEFVAGDXtRk89gvgcQBAn3YvP7m0dPejXar8NG8sIBlYr/CSXadlNEJkkonC1IrTXn3oV48feCrmZ3WgeqPACcDb5z7Ru3Da/SMLS/ceW7akvEve4oq9Eq68h4ptCxNWfVYCr1XVFqo+8y3Douo8DInDJjgIoICYIJGP9H6ZNe/1/ejQccn+0/WRhgqEmnq4RUREtaZY/svd/5p0ZT+OENS4CFB1hr9AYQVIIfFSj1M/OQRDN3cVCx84Z3Ty7X89FCLq46EwqtAsAoBIAiRdJZwJIN5p2hbe1/OwZT/BxMbulhRPKTqNuO2E4cnP5+8fpb/sIVHlMBH0jCRsk6epuLKhWHit7vrrPiVi4QGX/nj1wONO2/On90+q+3XsGFcBEBG1MKX6eWd1mX2rcu5r/L7qAMCog1PAmeQCDP3qa/qdfvs0n9/xLusqKw1sPNydBasO8UOwQRTkS+jLTlo6efS5DZ4h/zPFaRs0f+GdPx6+6Oris5dd0vvesb/o+Eq4+LV/pitXXW41faq1sqcRbZPQFCIJkEICGY0DK6O1z6/YlkhCiEns3m7xqz/A1Q3zGXAKgIiohVl7z9U9LVy3eDZfIeqhsuPnPYHCVL3WwQKJNl9u61U3Xad3XfGLLkdamAmhVkJha91GgSIjCVg4iHMwJiw0ZR//cMkHL/yn9yB8XOsD1pgCy4Glr18yrGLZnH3z1+0xIrx63XAH6WYEOwuQUJMEVBHAAd7DiYXAVI2kKAJEqM6VqMnnWrNmxSMpNrOx6LV9b9j9ANTnZxBjAEBE1MKk13zavQ1cgYoBFDXupAQekYRIagoqbt2Gwt2mbWum+A6RjRffcOidBStmDoE1O2X7vFqVaAgB4KEQj30T959/FqCX526GWoH7gOeOWLhz/7//dHThhj33j/64fliATL+kup0hNiFGYKFxJwwB1G0KmlTi7H0VgZN4RYVkOe3xTUzViAhEevR85/kxYABARES1o5CKUf0EWqhau05KYWDgocZAnd9gdx+8GHhhm6/tPfyFx1f8r+cxzqdPDuCzGriPn6jjpEMoEIiTdKb0tOV//t7MHufjqSwOGR/oEuDWK9H2qHuOHZ63dsg4eX/tKPNOZW8RdAfQIc8IVAVqLFRRlakft2hz4zYHTdUBlNnU3tznKagIHACBaxOm1nfJ+Qm2gQEAEVFLMhZIVq7aWyBB7Wv2STz/LxbOSClOuugLnPyHbb90oqDs0ctuKSz560gxpr/mYNraQ5AUt5v/+I1zMV+fwoAadrR7KvBf4NP/fHes/6J4dFTxxXBzTaqf1czuRtDRihixAoc4cU/Vx4l7TaMg3yYKA6sZDdU3SMsYABARtST3A/auij1EpNYdnFEHLxYGCi/h4gG3dV37Ta/vf9L1cxdd9eIdBRuX/V6MFNQ1CBD1cV6ApoqWPFT8g97Q+7c9FaBovw6Y9u9fDC5cNmt0WNp7rP65oq9Fpr+I7RyICaxE8ZQGAqRhAQ2Q0BQCdfF6fDE5yd7PFakqEZyRBFyyXYPs3cwAgIioBXlLX+0G9TvXcvQfQDwk7yWE8WlIkLcA5+/4HZf9Uv9y67XdDk349OGbz2mQzeN1nIQYIRAUBOXLTr9e8f8uF5QBCjwNvLnHpK49nvz1IaZ0zyHBNWuGGXX9vEjHwEiBGoFHEO9VoA4RLLRqCWToUxAAkSTgJQkDVzXn3thLDjdTABYOKUmuRIdu8xrinE3n6omIqM4W33nywfkf/e8JMaZDbZ/IRasDgJRLt+t3Uc9rZ/6pJu9774ajDu+0YtqDPjSd4RVWAV+H3kUAQH3GJTv+U7rt+0L5px92DDLrxye0Ym+B7ymQwrjvrnpubjoP8lnzMMiTDCqcfbP7eV9MQN/67545AkBE1IL4VZ8VAhpm814VgREPiFmXarfbhzV93+Duzzy/7MteT4Sp1NliIJFRmDp0ygpAxISS+vIUXfz68YWioQCBxGMELabT35KFQ8obmOROJejbMOdkISAiohZDYSpX94WYZDbT2x4BLDwc7JKHjvu/GTV+46mCaOSpfxH1C8OqXPa6UgBGYBKI8gUIfLwArwnN2ueWEYECSyt6j3usoQbnGQAQEbUUNwLJqHSYgQTZdJRepGo/AFRcs2b3dbV5b5/jfzdvY7te91YgqMzq5NugEGQkRIQAConn91tgCCAAnCoyYdv/9T37vlkNdV4GAERELcUwwETl3VRqX5kPiDf1UwCZsO1K1HgCYNO70feHM29SE7wU57MLjEaIt8LNrj0Aqt4dP/vH6+9bRupadUBj1ANi4NUsTA884m8NeX0MAIiIWoi7e77e2QPt45IytWcRxSWAg7ylODWLA/QWVHYdfq/R9GqIQaY64x5RVu0BvrpBUUtiNUJGEohMAmG0saK8sOede/zw9ppPu+QAAwAiohZi4rM3DxWgBzS7ZeRWHTIwUZjXaXG2T6L9Ozz9TCro+I/AVTpfVUYXKps6coo5iesSeEWUCto+3v/YmX9s6NENBgBERC1Ect3Kflaj9l6yXOAlAoVsdB27fZR1I34keO3Uv9zgYafkayrO2m9C6+2bCqMOziRgNXpz9kXPXowRDf8ZMQAgImoRFC61YXeoC6MsV3h7sRDVVZWH/Pj9urTktH0mflHeZvcHI5VSLwGsNn7+viDe6EertiCqbk+8rLC6841fI4jr/1soTI76ZdE4M2LTU74YePXLNvQYd/NRu41YnZuz1A4DACKiluBiwLrSgS4shNXs5tw9LELx6y/scOAXdWuMoM+PZt2XkrwXQ6QRZTsikUMONt4LAAZAvNrBqIPVCEY9BKjq8AXqVaGaVu+XpTWcb3yUUsgWnXjtxO8wEESw3kGNBVy0srzDwMsH/uKpbe+21AAYABARtQAP3IwODtLbaoRskwAFHmnb9sPn7kCmzg3qLUh3G3F/pberQmmQ0vbfyKhDvi9H0ldAIUibPDiTgBgBRJCB8RUI11ifml6Z6HCNtOlx5vJxVxyKkd++3ItsCBDBiUU28/RWPSIDRChAZA2CTKq8om2vu/q/8sYjjbmqofHDMiIiqrMR91+4u6jfycDHW93Wsl8RAKounc7vPAPX5KZT2mPlv/6zJNjjSeu+PFMEpvESAeMh/5QtgAIINIL4lCpQlkKwJLIFc8OCneandhkw6y+nPTL9+nYoBQTv/vfEQXmTH/pZJOFOlZKHPLcRztS+21QYBJoBEACarkgFu9zeu8fca/BG4+ZGMAAgImoB8j97Z68ArpOHVO1fX7uhahEAXkuDZId3c9aomwSlMx76nf3nL4fmSVTkGjgNQKT6+dogA4PQV1QozPJI8ue4ZOFbUddB7+Sf/1BJD2mzOn7lHODcRwEAP1fNa3txr5s2mrYH5/uNABSRhDDwtV7RoAIIQqhWZkQK7+5x9oJL0b/xEyMZABARNXuKRPneAxTI9xB4SFXF/FofZ2Nql75rctmyIUWnfLLsypv/6So+Gxr4TCJjElWJdlqjxEAPExcBrir+H5mwau7ewYuBwsJqJg56RGCqdjRU7wAXpb3YLyIxizTR/r2o/d4zK4YePrnfMz9fiFsBQIAL2n79pBMU513S78oCv/4QLyGcCRFqGiJao87fqEPa5CH0cf5DQiuhCJCS/P/1OueTXzbERj81wQCAiKglSJV1NFJVQx+1n3MXAA7200uOv/ND/OSuHDZM8NBlevfJV/c4MjB6UEYSKHSlqDT5sDvIVRDopo7eiYEASPgUnBikTRIWEaxGcCYZL6tzmsmYcI1XWW6D9vN8225TFvXdf9oBXX/zIQ6ovsqXAPxi+ycdolg6eq9fJdIbzsmYvISo32LFQM06bicBjDoEmkbK5MFJAnD+vcw+R/8GfSX7qkg51jTCECIiyt5cxbKHerycQPog9QqBr5oGqDkjihTyH+7ZZtmpucoB2NKym488yn8+9y+FWrFbBkGNnv6r9iWAq1pFEGoGztg4MIAi8uI8JC3AJzDJt33hblNLdxs4/dOzHnjv4EOwAS/V9joUS64ZfXrB2g//YK10SiPMavmiQ4BA0/E4hzEwPlqyZtfR5w267D//bUrdLkcAiIiaq+8rlvzl4y7+ziP3h4+GxOu6tlhrXksuaLsK1+SygZv1/OWzz3582cCRWrnxiihI2ISr3GGBIBULCJDQCIDCKSojtZFBtMpL3nvpws6vauc9FnU57ddz85/eaznOEAAlwNkPZtFCxYKbjj4y8fmSqyUIOmU0rtWfTRGjUCsRSSKuJaBu8dq2e17W1Dp/gAEAEVHzMkTx4tSVu/T/8ylj7Lq+B+HXFfsVuMrOaUnsLBpvxevF1OrJVQB4DzWFbXM6/7/1WVaf/uZdXe45/uikpvbZepWCQqqmLmRT8p5ThXq/0UE/TdvC98rzd3m9TWGnz4J9D5y/q7/0HRxZ1foLn6hz69565NeDC2bP+k0A19urwCGArdVo/ZaBl8CIwrjK8oq8Ln8beO2kJ5pa5w80xRYREdFXXa34YN/f7JGc9/LIsOyT/YwrHyvqdzcihSICqMJnczvXuCqeNR4Zb9Z90fvwE4ae/+DLOW//5hNi6dVF5yY3LLxBTVCoVVGAlarMeu9h1KW84MuM5C+ELZwate82dfl+Z83Z7z/fW46bgHrptmYolj+22+MJZE6oWWrillckMOpg4OGqpjaMKBykstJ2uLX3ER9diQOaZlfbNFtFRNSqKfAQMD/vyiHhvFf2CctWHGg1NVYQ7WaBQjVxjr/WaVmdAmrgxSBABFW3eOkZ904oGnLcJzm6iG06Yb0m/nht96cSWvktQBBBvFdZFSBaXh7sNMUW7PJ+eddB71x/8n1zHmyHVH13U6dt0OA3v+1zV4HbcKrA5NU2fbI6STBTNeRv4CGqUGNeeOxXnx3/i/aysV4angMMAIiImgQF5gEzZ16wV8fFUw8OKz8fm/AVRaqyqxVNqARQQby8LQeb64gqfFWioDECeDe1y49WjcXg+u8WFvzf94rylr9xsZo8NXkd5q3ZbdiL++53bwkGAw3ZLY38VPGvP/e7D5myHyQ0Y+JKf7UTf44WDgZ5WgmBYqMUTEkeeM7ZXY68Mnc1FeoBAwAiokajGP4Zwn88/t3RbdbMPwgbV01I+vIeUO3hbTKECFBVp94jTkoDtNYZ/ts9uxqEmkLK5sNJ+Pdetyz9YcN0CwpcDaAIwBFA43RFioVXDr+ibdniX6kN8yLYHS5L3BaBwiFemZD0lSizbSeX9z34wkE/e2B2PTQ6p5gESETUkE5QfPjA8t2Sfz57nKwbPCpxy5qx1mf6e0hHEwTiJQ+AQlUh6uFgEWgaKhYZU72zXt3FT66AKCDqPJId5zdcRyyor9UGNaNY8tuJRwdrP/mZBGGeeg+T5aiKh4FCkUQG5ZL30dquw34xtBl0/gADACKi+jdE8fnUxbusvv2ConZr+x8dXLm+yEF6B/BtrBGotRAFvN88A13dHVk4qFgYxBXmckehMHFlPR9lkN95bQ4P3oQp3r/zuweHC9/6fWjQzakAtVw1sSWBRwIekZrSTGH3Pw29+JmZzWVwnQEAEVF9mKhYes71e/q3nxtryvqNSP26fEwnzfQMELVTE0ARAKpo6Pr41eKENQcRwMMuW9V970nAG43TmAb08dO/HRq+9ub/hQaDXW13TNoGFYvII5VO7HxXnyGz72gunT/QnFpKRNSkxfPas/a+fuAu7zxdnClfMzYvKt0/0FQPEZOEbK5+vyl7PwfJfNm3Nt7f3hiBc37abuesGtMUNqipT0tVOwQ/7/qAMXq0SDzNUhcigPiMrwjaPzTkqo9P39C+eX1+HAEgIsqaAo8Di9edOdIsKxoXln2yn0zJ7AX4nnmChBWPSpP/lfV6Ag8Rre1mfblp6xbPfAoDgwiAQExQiXRDt6eBPa7IXNrv6qSkjhAYODV1egKOt09WpKXw2fU3zfjlhkYM5rLFAICIqFbiNfrvrT19VP7n+05MTF81wmhmhMDvakVCNQLVuKadg4Woi3e+qw4CpGp3epGs552za7agehQC1WMRVZsHVQbt5sdL8FoqxYI5e13ZNr3mJ94kgggmq4z/aqIKiEEKySnRmDOu3Ee6fJHDxjYYBgBERDuk+NY6JG6979iDC1YNGqdzNwyzPtrLaqYrbMLEQ/kmns/Xr76v+rlw65ryDdr5I95Qx6qDRbx1ropFqB5pr14K2r/ToI1pSN9XLOgx6gcFFavPC0ULU9CqXQTdpk2Gas0E8D5agZ7Fv+t3/LXvAb/NbZsbCAMAIqJtUmAWsPDVbx2GNQPHJq9Zf4CBG6hiOgUiCJGBE4HXr/X6TVLoU1Br4CUJ9QrxmYqUBJ+6IH+2dO4/o2WmhCmW7nnQCXb18t8lJLNrGiEiBAgQwaP2RX8AIKEZbNRglXYYdP3uP3/i+eb8uTXflhMR1QvFkr9dWCRLXvlOonTlKItobxXp5GwSUCD0lfCwiCQBqRpG3pze17QIsGljnQwMAh+td5DPUuFOr5k2XaZVjDtu5sCPLpiPs1pmV/DuX87ap9P8//d3I2aoR7xmX6qWP8Y/s9oV/jUCRIrVpcnuVw28fs7dzb0Lbd6tJyLKGcWSv51bJB/875Rkeu3RzqJXCAsnFkajrbr3eAMYjXd8j4fUG/R2Gndim1vjAbWAxEWCBAYQDx8PTqxxYhZ7235W+U69XnDHXPrW4MEHL2vpt/8lz984IPnirXcaiQ4URVXZY4X1Ds4E8DBVuw9uX3WZX4M4jyNSKY+Cna7vdfOC61rC59f8r4CIqI4W68pdzBUHnhOmVp9i4PoaEWhjJOrXQryML65DZ6DIWAujgDif9garnSQWuqDD1I2d9ph03Zn/fuWRK5DCna3klv+QYuncXnfnafmZkQSwPpNV+eTqpZIi8W6LKVP4SO+fLjkFfVvG59gyroKIKEvz/nr+8I4fPHZrqOkxYmzgtSkO5m9LvOe8QpBR+MDLali/qDSvy3PpLiOfff/c+xadKChrdbf55Yplf+59ZzJad1pk8gurV2FkQ9TDSwBA4dS+7k++5Ue9Rp6yOLcNbjyt7DeDiKia4sPrDzus7Rdv/SZEVJQxYfy0V8t54YZUPZ8v3gHQdAS7SE34nsvvNqey+x5Trj/l4ZK/t0Vlq721v6b4+JUht+SVfXKOt8m80FXCi0Ha5CHQTK0P5yRAAhlETt4q2+fkM/Y4409v1UOrG00r/S0hotZN8eENRxzVfmXJbUbQa9OiPM3dTnu5IgIYxEVnPHSjqvksMnnvuIKuL32y70kvjp9x4WLcBLT623lXxcKfjju3YO383wVG2lVKiHy3EZW2AAmf3rT1cW0YKNIIPyzrUnTBoEv+9WJL+4xb1tUQEdXAgru/X1T44Qt3WSND61oOti6ql6KZTUVpFKhKTrPwiGCgqhu8BMvU5M/c2K7n6+uKvz+pKPzxEhzA2/dmig9vOuaw9ium3ONNokfoU4gkgMBDESfx1SRJ02g81y8AYAKIq/x0bbvBvxx07aRHW2J32fKuiIjoG9yu2ubYi7s9Ffj0xLgyXmNRiAKRhEhqJbwE8eiDj1Tgv3QI56XD9vM2duz/aptjzi/p9d1DV2Aeb9nb8v4jlw7eqeTev6sNRhofVRVdyu6zykiINr4cFZLYGIW7/KbXje/c0lK7ypZ5VURE26RY+OviiwpLF10fiIYZ2EZbvy8ALDx8vJucAlgp8B9Eyc6z0h33eLXfCU+/gt7weYc4AAAgAElEQVTI8Db9zea//XjvwgcuuEuBQwM4WM0gI4kdLvHbFg/AikJ85DNBuwe777n0DJzRcj9/VgIkolbjdEVe/i+WHAMbhpGL4k15GtCWhXmc10wadm0kyQ9tXrs3ynbb98WBAx+agolVr7yk5XY8OTNJ0e7B3a738Ifm+wo4CVBhChFqdjsbBfDIeOMj0/bR0ptmXtqYuzU2BAYARNRqXHzzd4osogHiFa4eN+PRqnlkAw8Vs+k83kUOwOqUKZwtBZ3eKO26z/Srv//AlCfaw8VhwcP10p4WabJi6TN73OA1OsaKoNLkQyHI8xUAUKOkP4XEPyMAccpfgFAzU6Ze/OrPT5RdV9Vr+5sABgBE1Eoo2q7fZ6yH7SQQiKLeduQziPeadzAwGlU4hCu8CWZF7Xq9Ge0+Zm6/oX+aiqEC4G3g3Adzfv6WT/He/4pODjPrzjIGeapxMSSgZh0/AMSDPwonFqGm4E0CcDpn5eDvXHJi1/4tvvMHGAAQUWtxCmDSZYMDUeugcBLCIKq/8ykqMzbvhUy7Hv/G4HGz+n12w3s4H4if9P9cf+dt8RSLrh19cmLd0usCoEOk1eMttT+OAAg0g7TNh3HpVWW7DrtuyE/+Oh24N9eNbpIYABBR69AdMJnKfAggHoDUX/V+gSIywfqo7+hn+h37zwewW/xVqivF+7eeND7/kwXXhpDeDhZeBDaLpZwGHimThxARbJRaV9au3/V7vP/iv1rTz6n1XCkRtW6XKj51PZ80yHzHuAyc2Kqqf/VxG1QYVYW69ZHJ+8jld35tbfdxT+6buasE5/O2m605D1/Za7eZ9/wjHQTj81wKGUnCIgXNcmtfgcB5X16Rt8t1/Ua/dz2OaV0/m6ZV8oqIqL7cCGQSHT5V5+JCOxqhvp6BFAZOrIgJOgTiRwbln1/SZf7j/172cfdHF/z2gO9gTbxNH9VOu/WfdPYivfM1gwgGgabgEGZ1rEhCWGSQ1MyGzKHnPdvaOn+AAQARtRoCLdhltkIrIgnhJKi3LXzjveYVDgKvCiMCZ/O65qHyezutnvnX5b/d9bXFl+911dRHLh+IhxkI1FS//vfPTifaPZ/yBs4koJCqQK72Er4CGRSg0oadky/ec0hrDMgYABBRq2GHHTpZRZZYeChMvS0D3JoCEI0QwcIFBR0TVvbPq/zimr4ld7y4bE73fy29ZtxPFpUt2gXDW18nVCsTBdHQE/8SaLQohIOKqUMQZ+EkQoFGgUmv/O6y527rm9O2NgOtb8yDiFoxxUeXDLquQ3rFFc4kROOuucHO7queuazG0xDOhDDqoIqKNBIfRIn2L2f2POThAUP/bx6G8Pa8bYpPLxvwK59ad2UeomRl1jv9GSRcBDUKrzbamLfzpf2uf+/W1tQtcgSAiFoRgfYc9WJaEqsg8eKx6lEAhUC0PrcCVhh4GHh4MYjEwvgMIgQQQX6+SQ/Lz6y6uN3ch59f9mDPp+Zfvd+Jr302v3NrHJr+ZoJuZ82/WcTMEkFWnT8AhD6DlE3AIYEkUkFe5ZoTnpvxcPccN7ZJaz2hDhERADykWD6v/902s+4nMIFYH3cglaYABW4DIpNotKZVlwpWVSikVIH3KsOOL2a6D3tjwGGPvIr+vGXHFEuuHHZZ3sZl14q1YV13dIw/Ve/TYcdbet644NLW0jW2jqskItrCoumP9C987LwHvdhiFYPQp5A2eRD1WW0iUx9E4oqC4jKaMYl1kSTfTrXp9Vib/U56vutB5yxt7bfvOe//t1f3e0553tm8QVC34zfsgBWFd+ajL4d++/RBp989LQdNbPJa928QEbVSivl/OvWgjkue/aOXxN6RBAg1BYXAS3ZryuuHwMMgEAfjI3ivlWmb90E66PCq6zrkhT0OeuxlDIlf1/ooFv6q+Ko2ZR/9CsYm6jgIsOmYXtr9rduXi36Ev7X8z7TlXyER0TYpZt3wnXHdv5h0O8TsI97VuI58w1FAgYxJVu1wJ9VzBHCQtV7s266w+/NfHnDmv4bd+aOFeKJ13dIf0dIO4y/q/3xCXLGvYwCgEBhRwPmVG/od/v09zn3opdy0sulqXb8tRERfofjoukNOaLdm1nWA3cOLQMVD1MB6ByeJqrrBjZeIJ+o3LXcTKEQ1jgMAQATea8Zo9FFluPOkiu4jHxt42MOvYQDQOm7vio+u2f+Mtuvm/cmbZFuvcYnfbJd3CoBQK7De7vrnPrcsvKClf4Yt++rqwUEH7Td6Q3lFgVVzlHrXRoxJqupoUWhc8AOAMc5F0evGmjxr7QvGhKsnT578cmO3nYi2RfHeLSeO6/zpKzdmkBwTQpARQCQDQQai2VWaaygigMJCVWE1sxqC90vbDng402fY64NOv31Bi7/Nz1Us+0f35wNkDrMaIZIwyzwOgYcgqWmkxS4p7XHAjwf8/IlXc97eJqSF/2bU3fjx4w9KpVJHW7jRUN1HRBIANq0e3jL7NP67VI3SxcN0UrXUyKtmrJEP1NiS/MJ2t7788ssfNMoFEdE2KOa8dl+/Ts9de53xG48s0ExhhHxEGsBIBk19KV51xydi4Y0FMhUro6DDLb2WLrylNUwLLLzuwO+3Xz37LjVBYQYBLFytCwRtuqfDIEQGTpJPddnrs+NwRsv9/FruldXBoYdO6Ld+ben1AhwkxuykqoAqsllqsuVQlEhcINRYC+/8B9bKPydPn3VtLttORHUwT7H4yQk/TJbO/6kTDEkinVC19VYyOFc8DAI4iI98xiTmRh32eHC/70/689LeTbvduXJ1qeb/6Jru/w41c0iEAElfASe13+zWqIOTAF4CGJ9eX77LsLP6Xf6/x1pqV9kyrypLY8YUne8if6FAe4t6qPfx+BoAlew+KvmGoMFaC+f9OjX2thkzZv46qxMQUY4pli9/tVv6novPzSv79CgL10eMyY/z8bQqGIifFWXTvxuWQOFhNhUyMvBQ79eUJnd+JJx44f/1Ovini7d3ex83blzR5MmTZzRsi+vfkt8fcmxi1Zx7Q9FOaUnUeo+AeHsmA6uuaiBXkDKJF8f86pNDP2nfMrvKlnlVtbT/uDFXZ9KpyxTIU+8bfLDPGkHk/GcIgqtmzJj19wY+PRFty8WKd36zZNeCG7/73XDjJ6ckfeVe3oYFHhZGI1gfITJJKBxMA5YUFvVwEsLAIYCHU/URwlfX7Trsz3t1f+5ZnLr9dhSN2Pe2RJg4d9K0kpZ3739IsXhun78X+A0/8MZ+48NXTYgA6qPS8k5Dz+p71auP5qiVTUrL+yWohQnjRh+Zqqy80xjTw/vGK/4hUEAMIAYqZtb0GSUjG60xRLQVxWL9Yhdcf8qh9ssFJyczG8eoSDsYgYNFwqfhYbIeJawtBwsRieepvf+8Mtzl4cpz7vnDoF77rdjee4qLRx4G1fsNsKs6//60WXMGN0hjG9iSW789Ibl80sPGmG51rQ4IxPfmlCTf3PmWt79XIJ23+/k2V602ABg9etQLiNyhAgevjfsxxIOJVX8XgYopL2ybN/SVVyYvaMx2EdFX3aKaOO7WIw/zK+ZPyHcbjjaa6S02sAogN4VodizUDJwilTIFM1y34j/0vunJZ7By+/ewUaOGPxZae2LkXLz5i/o502bOHd4wrW1gzymWv9rrAesrTjOoe+pmVQJ3lGnb74pe1067uaV1mS3rampg9KhRh3qfedQYs5M24lP/9kjVUKKxFjYIfvzmlOn3NXabiGhrio8eOH8o5r92dLJi9XdCZAZZY0KP+gsEROKcooy371Ymd76n9IZpjw6Vtqu39/ri4uJvq4/uV+/aWIFxMLDx0qXbp82cc179tLLxvXXv2UM7v/fUUwmju7sc/CxEBF5R8tYfFh1+hLRdW/cjNh2tKgAYXTTiLnX+7C3jQhWp81xRrmxeMRD/zdgAxuLMyVNn/rUx20VE26P4/I17e1e+9Ndjg/JlxxlkhhsJ8kS1aiW6bnodNhXy8XHanpivFawRKBwsDDysj+DFwouFhYNTKau0BU+5nuPu6n/+Q9O/6fZdPGrkc9bI4ZGLNt3fVARGBMbae6dMK/lJfXwaTcIJik979X1QdOP3RX0ckWU5PROJRaErR0ryKjJtul7V87dvtajtglvOlexAcdHIuUb9vqq+wYbqcsEYg8DYH785vYQjAURNluKiUrS98E8Tvh+sWfBto9EgwO0WGEilJGG823S3jW8/cWU/g69uYuOrstAVQGRCCAShphEpPnYF3W7rOeqtW3HMNyT5FY0403h/JwC7rTlwYwxSggNmz5j9eo4uvEladN/PxiXffeIha2wv8ZlNSZO15REg6TciHeTDOTsluvzfx/feZdTn9dDkRtHiA4CDDz54t42lGxZBXV5THPKvCWsMKiI9c86cORwJIGrqJinem3niqOSKt47Li9YfEyLqC7GBwMPBwCMAoLAafS1x0MEgoRkIEG9L7DIVmaDN85n+h/6x71l3T/6mW3bRqBGvWMGB3m2/o7PWAkHywClTpryWo6ttohQfXzrg5vzUqovUBOJgsqsOqAYqPg4eNIg0f9ffdP39vN+1lK6zZVzFdhx41IG7Vny+/mOF5jWrx/5tCMIQoTXjXps8fUpjt4WIakIx65GLB7af9+IJbVMrv6MaDbbGhMDmomJb7zwoUHgJIC4DZ8O5Wtj9vvMunnnHv9tt/1Y9ZtSI33rVXwqQVP3mTs4YqZhaMqeg7tfW9M37zx/77PzKb58yxuwD77Pa5VFFoT6BhKbhggiRK5hTeuIfjhs0+qSPc9/ihtdiA4ChY8fuFmYyC42P8pt6Gc+aEAAqsrHdbj0Gvfj008sbuz1EVFOKaW/9t1uXp645VTZ+fkTSlQ21xrSNJIRssY+9IJ6qdk7XZcK2j/txP7y19zFXzd/ebbrf3nt375QXvhCIDI6ci8uP74CIlE+bOacwV1fWtCkWXrHXL9tUrrzOwyYkyxEASAQnIQJVOGiEsMNN3W6cf2VL6D6b2t6XOTF+/PiuiXTFIqsto/OPKQQoLP380/80dkuIqDYEo/c98tPe15bcuPu5yyZs2Gmfn1SYwqfhos8cDEQEgSgiFYWLSso7Dzq718DFZ/U+5lfb7fzHjBp5fedksNwAg533Nev8AaiYD3N8cU2YoOKwi/6Z0eDdEJksD+EBCIw6KDxC8YFJrTnyqVn/65rTpjaS5h/CbOXxxxW3/qGoHD7Kb+7D/luqLjkqxsKEiSenTJl6fGO3iYiy9Jri/bnHj+/w2ayfhNG6Q9KSRCrR4fHMgWfeOeDQiz7c3q157KhhxRB5QhXda1u8zAjgjX1x+oxZh+biEpoHxSdX7XOdbPz8CisquagLAEWmPOx8a58V71+GfzTvLrR5t34biotGvAXv92lJnT+wOQAAAGMtUlH0rdmz33qukZtFRHVxiWJx7zPGb1y9wu4dvfA6rvmGuf7iorvhozOzLVduBEAQPjh1WsnpWbe3GVr27r/6mnvPeiwwOjwXvYIRwHksK9v7xBP3+OEdzXpPhdpvl9SEFQ0fdrdR3ce3sM4fwFc3HPEOCWv/ixYYwBG1KjcJ+gCT4n9s+3/n4nHFY5Fxj3n13ap3Ja3JkP/XiECcn1uH1mZl2LBhw4MgcVZJyfQzG/rcANBzr2MXLfz1DX8qLF10pxhpU9fuwamBIOqZ+OD5EwCd0Zxvwy0mB2C/0aN/GITBmfVV0z/e92vzn8Yi0HiXQlWMLhrFFQFELdi44pHPmHRmMlzUTb2DV8T7hmRFYEO7OJft25GJE/frH1qZaeAO+vp3FfOuPqjP2/edvRfeUyAnz+fbIphzzYtPR5KcLlAY9V8rwFQbRj2sCIKo9LiPbz95dA4b2uBaTAAQ+cx9LkrX2/FlqxCgsSikepsqBEbHHLz/+FY0n0fUeoweNbzMe3dU9UONqFaVD8ru/iPG4M0pM57JZRt3pHRDxTQLFQvXZVvfb5/+/Piu8x55ZsXfuk1aMnGvWz/8w3cO+GjK/X1xd27vsSdKuw3pnXa/K/JmPUSgCnjUflkgEC8NjGBhobuHS6eehD2b74hziwgAxowe9ZR634wHYnZsy2tTMVATwDm98eXXJ/2v0RpFRPVi/Pjxp4pIYS6Ll+Vid7zaGDli2Pui2smrQsRso/aAoCKv8xJnwt0CyYxLpr64oMPyNx5PPHnJi8sW9PrXJ1eNuHLZ7SdNPHmdJjCk7ul7fQ+e/BSMmatiqsorR1kdSWFhNQMYC5tZd+KiM479dh0b12iafQBQVDRsCJz7tqrW29C8SNWwvzFV9fkDmCD+I8bGQ3Kmvj9KrW4MVOyaZH7hxKklsy6r55MSUSPIZFJd40Tm3NzTRASq/v2cHKwGikeNeCsQDFIf1znw6jF+zJhTt37d+l2HvBdJsDqjFhbeqAk750nUJ0/LjjUbl12Lxa89/Ltrd3vt08P7/GXZtfud9upzd/fFR4qslnePFviOAx6OVDYEiLLetcloHDhEsBCb2DX8fM6PMa95jgI0+wDAqvwRdZzT+SYm7tjVhkGJCcJLJUgcOHXGTJk6Pf6Tn194hgnDGxUyXYzNLjmnpm0RgbHB6zNKSjq/8cYbL9fbiYioUYlqr1zf0QSSyPEht2lMcdGbRnQfeLcpfFEAmcj32vq1bQ79zloLXxFoFL9KHdIIESGAhTehuJ3bSTQmTJeeFa794O7BL13xyvK7uk9ZesWQG5be8K1vvbPynV1xQs0Dgh5jXr9XYF8CJC61nAUVg4wkkfQVgAJGK8Yvfu7wrwU3zUGzHjWfMKFo90x5ZolCc7Lqb/OHoRCJt46wNrhr6vSSn9Xk/fG+A+vuEJFjNYp/oXMxKiECSJCEQH81ZdqM6+p8QCJq0opHDHtFBAfmatheRAATPDhtRv0uARxdNPJ2UX+Oqn5lykFEAJFXppXMPvgrb3hNsezZbq/mSfqAjFrEOyZW5TxU75woBh4GBgqLuKSveqeAX+8kXKI2/20U7DqzrOeIuYNG3j4NQ+J3b8/8G488qN2KKQ9rkLer+GynAWTz3gIiyGjwnx7Fnx2FE5tXl9qslwFmKqIHFbnbf7v6MMZYiOC9GTNm71Wb97/88sufAfj2xAkT9t3oyyar93UuuVn1P85GRXLE1GlvtKIqXkStl7HSRX3OxwCyLIdXM0VFo+6C6NnebTtvQSC7fu2L/wC0U/4X6tIABAYRvvIoVrXiobqzdYgToEVERGwHCz/U+/KhvnTJqR3fXbBu+btPvusu22lSuu2hM8qKT3t3mD95KSbiK8cc8Pizryw5oPeTea7sbBEx2XzKX6nLAoXx6dGLFxx8XB/ok83pubpZTwF4r2Nysexv0/SBKowN4ET+MaWWnf+WXnrjjbemlsxuo2IWmjrkBlhroWJfnlYyu800dv5ErYfXPrlM2hMRmECeztkBtzJhwoTvGdGz45HPr1NVeGifr33jbwKEbT/wqh5QSA2vWQF4BZzGxxbVwIjpnCfp/ZOpVVcVrJ77YJf/XPD88hd6Pvnh5SPP+vC208fitaqpgtmCsq7FDwP+i1zM2Do1CA06Jde+e+EjWtau7kdsOM02ACguLj7bGGNzNucuClgDL/h/M2bMOi0Xh5w+c3Z/I2Z+bYMAEYlzD4y9dnrJzIm5aAsRNR9ONaePkSIC7115Lo9ZrXhs8VGZirJHt9f5b2oDUDBmzJivPVilCnaeB6DMQDc98deGQpAxIcolH5WSBwEkFN/RGjMogdR3OlYsvH3nhU88/cmzXSYtv6T3Q8uuHX9hl8F77xSZwpW52CtGoHBiEWh6+KjfHP695rT/TLMNAAT+Z95vf9/rbI4IYO306TNPyOFBMXnGzIEAFgLYfoKgbC4uJCIQwdqCgoKDp0ybcXUu20JETd/48aMPDaxN5vKYzjk//tgDSnJ5TAAYO7b4cET+mZqMxIoIQmP6b/31ss59FotinQHgs+iSjHrkuXLk+XKEPg0F4GA2jRBENi9IBe06JRGNS0alp8iXH92kL9z0gPGpgbmIs4x6qAqMSH5yw0c/WKQbd6nzQRtIsw0A4KK9c3k4IwYq5te5PGa1qSWz+0PMxu0N6akCKgIYC4i8MqVkdqeXX5/0Sn20hYiaNu/Nptl/zdmqIk3ddOlNpTk6GADgBFWI88/B1Sy1QL1HFKUO3/rrj531l0XO2FUmy616VATOhHFyYJwzVTWtW1W4TR1EHSIYOBiE4kJvE52saDIXz+oKwFcVFwrghptrDzsmB4dtEM0yABg/puiY3C63i39deg4c/GQOD/oVNhGeZOy2cy6tAKLew5grp5XMPliaURIJEeWWuuj4XBYAqkokznkJ4GVFI79wLqrx0mcB4KJop62/fuNilEUmuQbqNmfW16PqxPFcDdR7sRBVxFWaTaJw/YdH4qXmMQ3QLAMAp/67uUyQUSjg/donHnjg85wddCtTpkx/NlJ9QsxXy08aI/DAsrxE/vDp00t+X1/nJ6LmIfIul3ObcXKz2BU5O9zVQPGoEauN+p23Xu73TbwqjJivJ1f3BTKmYIZvpru4CRSBZuBhkTZ5cN6PfGf+6c1ij4BmGQBEkXbI5fEEgNRnBZ8qJSWzTlT1a6pPZK2FMfb56TPn9Hpj6tS36vv8RNT0GTETcnrAeEh8ba4ON+b54a+L+k7ZrMBSwYBtfd0E4QI1JtOcltBtyYkFBEi4CngT7tzus7f3aw7JgM2yDoAVv3euP1uF1v/YEwBrzNWA3g4TAN6dO3n6zDsa4rwN6cADDxyyceP6jtaY76tzaYGZqFDvvbogCAZCAGg8NBm5SNX7BcYYIyKRqk4xNqzIOP/vkpKSVxv7WpqzceOKD9aMO8B519lYs6867ahx2cz2gQ13rX5yExFkMqkPBcYaI0ZE5qv3n8PIM+3btVv9/EuvcdfJBuTV2+pxwpoui9uaQjYtb1YRwNppuWjb6KIRL8LrhOy2JFYIRHC1Atds+V5BRf7hnxVUfrbRiCZyXv6gQVTd1NQjMAh85erhuBrANY3drm/WLMOt4pFDF4uid65+TwTxTllhh06D3njxxXpfbz+6eOSkNm07/PCll176qL7P1VBGFhVdZdVPUOgwAB3FGMD7OEO2+kVV82Rb23wjiWufqxiIMYicc9aYL0RklsI8NH369Mcb4lqaq6KikT8R4EBVFKn6bqGRxFeGaKv++80/g+q68fENXgA4SIUKpqnilZKSWZymqmdFo0akxLsE8NWCM7WxZQAgxsIGiUsnT516U13aNWZM0QsaZQ7NtkCRxI2BDZMXTZ469dYtvzf1v7f06vXy718PjN29eQYAm1kB0t5M6v69z/dDUdPuYpt267Zj9KjhmtMkGWicgW/N3dOmzTw7ZwduwQ455JDh69ev+ymgRxiRrqoKqV6WWd3pyOaljbXP2YjLMUN10woJ532lEfO6Qu4uKSn5d26vqHkaN2bMdelMeqxA97MCo6pxRy91r5ApVd0PUL08Vaq/vtDB33P7jNk3j6j/mbNGM27cuMOiKH24c76NNThQVVwcGNX+sxVBwprg3qnTp1+7o9eOLh6lGsWZ9bkIAIwNMHXGzDr9oIqLR1wC1RuxnSp/NW6VsYAN7pg2bca5X/nWEjXLb+8yNQlX5HJbAqHBGQGc148/Pejag0Ye+bOcJ1/mUjOcAlAYMwouhwEAAKhXePWn3z1LzztrRP2WzGzORo0a8UtVPaN0/dpBVhXeb37C/8o9cYuOIbuETfnqk6uLYIE8QA+zIoeNHjVspTHmgSnTZ12a5aU0W6NHDj1IxPwKwAQXpWARB1xfeXLKwVPUluM1W44kCNDPGHPTeUUjbhxdNPKfHTq2u/n551+ZW/czNr7Ro4afJsAFqrqvZiqNeI8AgPqqkUIgnr6q5XENBE7dxh29bsKEccemKlNZtHz7xNStQy0eNfTnRnHj9kr81rgdqPo9cr7v1755K7xPmFVAbvMfG4sAtlPZwibfvzb5Bm5TvQwRKYwxeX87Z9SrAMbXxxmas7HFo/7qnfuRQMXHqyaqHzS3oFv9K7sbz7Z3dtwioPAegO6qwCXFRSMuETH3T5teckZWJ2tGikYOv9QAZxsju1cnim+5YezWa8aznT/emkK+8oNWAPL/27vzODmrKm/gv3PuU91ZgLALw46I7Et319qdtImsQRAcN8YdUdRRRwF13sFdZxxHBHVmGEUE9BVGRVF4BWUNSbq7tu4AirKIDDgKyBKSkK27nnvP+0dVdTpJd6q66tbSnfP9fOKSPHXu01XVz3Ofu5xT7PgRMZ2/ZvW685Px6IqOOfP+fvny5Q95abSJzj3zzFc+++ILFztxHwARi3MQEdjSezx+468DEWHXOZ3rKh1nxwqvFPFX2JwAhKGteVqzry95gRQKV1ivGxPkpO3+6t8B/tTcZ6QwVp5Nx4Rvdum/aauRjXYWcsDBWNiU6ov1mIG7AAjO2Yq/SNMx/utmLYy4vkSs6199xp/JUvHua+M9Jzux4YUijpxzpSH+0n7arf7QVn9qtW0cGU/rUXqCKB3jnADWgmz47kS06/ne3t6LfPzM7aYvHr0kFe36qyH8K8Qdaq0dfz8w4b+pmBN9/I8vBJk0NgGAsxAbAs4uGtv48m+Tidh13hpugmSs+7t/feGvjzPch1gci7XbjVht/z2f3h9XWk9x9/KB71Y6H2fd/mbiyEudnWiCgKi2MsCpVOqVY5tH/8vXzV9Kwycisl0uAIBgI3vcHwqPMYoXlxBBKTOgjy5YcznBaOfRJzUk9bJPM7ADAED8bWnZOmxxSJvJfOrEE0/sbUQbM0UyHrsmHutx4uQ9TETtvEW39BS8twtHvx2L9WTPOeecXVt9Tj4sXJh6dzIefcGJu1yAfSdOt7Sb8SkC594dj0fXvuY1i9q6M7YoGXtnMnrSRhK5EAD8PuFujWg6z6xysvjckFTcAjg83Zclk8mjXDj2MBM8PsUSQJw87TYAACAASURBVAYmMG+d7F8L83d/mOFWgxhiIgjIISJjEDBCisCBYST02rlthGJegPCJV8x7T1vP/wMztANQrAHkv0dYjulciLmdZmDhwmTKeyNtblEqcXE82v2ciHsvOUvTSfTRKuVzFGthRGJ/ffaZ1X19yUtafV41E0E83vNbOzp6HazdqzwkPROIs4Czu41u2vjtVLznxlafz2SSiegtobXfJ8FcV/ruNDINSLEQj6tqGN4553w/7RLR+ukcf8YZZ7xaXPhbiIv4qLVe3k3CQQcI/N50evIFvH9OXDS8ebcj/s8YzfmRsZsfIWfXCxidMopOGYWB3ZLut00RAVbgwjn75nBsq8+mshnZAXDOLm/oV0CKg86F0dEfN7KZdvKOSy+dn0xEB6wNv07i9oHXQkvNI+IAFwZhIbw8lUr8stXnM13RaPQzyXiPsHPHOedKKy5mxs2/jEqdMYicn4x1/anV5zNRKtbzDKw7xzlXrC3fBKUORlWP9cTc57sMcCSI/HY6r1nz0uq7yNnAx80fKP78bAwYkcvTudy1Ux23ePGb1x/2hez1Bx78p/P/dMF1p63e4/j3bo7s+dW1vOCOUOh5ltBxaTdKu/YBSgsdX1i97/F3zYRpi/Y/w0n0JeOXWBte7nMr4GRKQ3d/zuRXHdTQhlqsN9r1Zkf8Q/HU428HAgIbBoMGBq69fiEd297d8XPPXXrkM39+5mfGmOPGM8FuWQ01YxER2ATo7Ox4w73LB37eqvN43eted9SLzz2bgbgF5RusEDVlOJmIIGyuzmTzFadFEtGu9RCZ76dlAZsATMGpA5nM3dW8Ih7tepiJj5I6HwAIpdS/zAAx2PA1g+nc+6YfSfARQeRDV745Neevv18cjL3Ub2jsGCPhfBLMF9MBK8UWCa74ey92fOFq8fOlBo8aEEgchAjsQllndv/eWy974n0je7b/7XVGjgDM3WW3m5vRjoiAiQ5MRrvua0Z7rZCIRW8Roh+Ls7Pm5g8U5+FcGEKc7Utd8O6GrBnxpa+v731/+d9nfsOE48ROqKk+Cz4OEYENC9i8adPNvdGTz27FOZx55imJ1S8+/7CILJj4dN3Im/9WC2GLN59Ipdf09yVOMcyebv4AQHACLNhrr4erObo33n2/Aeq++QOldTlEIGYI0dW13fwBgPDvRIWjL75p+WFffejzB134l8UbDznjvJc6D33PhmDBD0OhxwM7tiniNqMDIRwFsBSBEMPBwFIEjrixHb1SbMsREOyLwStOvGkm3PyBGToCAADJWM8fIe7wRs+NCgDDDAfcnMmN/G1DG2siEUEyEX8U4o4ksbPp3r8dYoYDvZjNDe/d6nPZVioV/4FY9w5xxdXntNXGvtmDiABmhERvyGfyTR0JiEW7n2aR/ZvZoyrf/AkCMgZjYXjayMgDd+3oNalUNInQDdWSY38yBMARb87mR+ZWOjYR7/4OC97vq22gWOvEEV+TztR686/gq4IHjvzKkbvdf1vUbX4uNqew9lQj4SFENM9QsUpfKFzqilk08veKAZAb27h+7n6XH37EI5/De2fG7/CMHAEAABa5tRntEFDaGUBv6I11N6xccDMtWpRamojHXiBnj4Sb3Td/oJg3gMXtlYr1tM1IgPzkJ+iN99wBa98hNiytOwFm480fwPgizYjIzalUvGn10mPR7qcNmnvz3xaB0NnZUfmDdeTxAaOcBZArJh/qjXVfZUDvd6XcHj6wCVBw8t2G3fwB4FOEk877p8cO/+LgDUfc89g/jL3jv85c/4qe9xc69v7mJolkrHPPdLhNhQ4UAAoa9pslFEBECmPBbtcffvLMufkDM/hqIyJYmIhK2MDtOxMRADYGlvjzmUyuzUs8TC2RiJ4hTn4FEVBz6h+1DSKCo+CebC53SqvPJRHreY4h+0wcbvWX/qV9FT8DWpvNjXit6DmZRCJ6K4mcLU26Rkw0cQQARPbi3Ejw5grz0KlE7Cqx4Qd9jGoW8+4TBLg7k1916lTHLepLXeYKo1+21sKBQB4WnhARTBDJDqSziboC1UxwjWD+Sf95wav3fHq4v3PzC6exjJ4I8J7E3Eko5zEpj7fJeMrlCcmvq2rJkCB0vD40c3/8lU8/+dH/2p3afu//RDP6ipOIdg0RkGzmFilmBgTvG8qPXNO0Rj2JpWKnmdDe0ejFk+2Mgggg8p10tnU1HxLRrucJ2HumbO3zrbQt7KWh/Ko9G9VGKh5/N5O7LgzDygc3UKnOyOZ0rvIwfF+8J22dS/j6XpTm4G8Zyg6fO9m/p+LdS+HkNp85PogZjviRbDZ/tLegdRHgN8ATuQtj7qmHTurY/OxpbEdPMlI4kCGdRAwhhpXi4kFHWwbFy4sKaXxWTkACCBtwKf12AeYx17nHdw958+8vx8kz73Y6Y6cAAGBuZ+Qjze7DOOdATN/ti0cbN7TVALFY7Cxj3U598wcAZy1AdFFfMjnpRbHREtGu53bmmz+AcqGoPRI9J93RqDZCF/5nI5P7VKtYOEiqygFgnfM6KkJEgLMrJvu3/v6+cx3Y782fCEA73fwBgIATCIdf+L3cEV/KXn3wQU++cWzpJ5aGexz7IYosuKYAs6rg5EWWEIZccfSCBAFCBGJhUCz+VNx6aCAcwDlx1obPEHX8JDzi1Pcf8pWZefMHZvgIAAAkYtEBcWFvs38QNgZO5MJMbuR7TW562lKp1GkuHLtjpu7t944IQrwhmxvepZnNxqPdxWH/nfjmPxEzwwm/O5PPf99n3GQiegucO6cdOrtcrDV+z1BupOK0U7Kn61mBvMJb20yIRCKfWT6Y/fLEvz/99MXHvrx2w0M2LPirOUAMR/RoNjd8lKeQjXeC4HMPYre3Xv76hbuseeI0u/nlQztk0zEkrhOQ3R14DkBgFMaIeK0IPS/gP4dz9hnZeFDsjqPCa4fw0Zl9C53ZZw/g+OOPT+y6y9y0HRtraDavyRhjQMa8f2AoWzHHd6vEYrGzDLlftmIetJ0RM5zQ7dn88FmNbmuZCP4pHn0O4vTmvx12meER4yvaKae8acGGdU+saYebP1DsAAjxDencyNsrHduXjElY8FeIlJkxlBvZ7qIYi3Y/b8Tt7eubSESwxI/kcsNt9OQ/XQL8EPifV15/6Av35zp3W/fUUTT28h4QiI3Me3nzgoOfePLci//3vKuPehFfAGbBrRPALPkpUvHoDyDuHdLkXOlUSrQxp7PzwntWDLbdSMCbzjnniD//9ek/iHVo1SroiZ2y8f8tE3LblZOylI+Z8P8avSiOTQBDrntlZmRVI9tJxnoGIK4X4hr6M02snTa+CGw8zW3xb4sfQeldlgklhYrD8hAnAPH439daj77qcyYGBeaeobSfhZnJnq6biXGedf7OuqYkMgIwHIgZzOaSgUz+ih0dfuH557/i93987Fmf2/CCIMBAJr/VySfjPS/Aub28dUSJIZBHsvlVM/jmv/OameWAtzGUzb8z0XPyOQAWNLttZy02jY5es2TJkofvvffeoWa3vyNPPfOXQdPklf5EBC6uPi44wTMO9KiJGCciv3bWRcAM51xoDPeFhXA3Y4KjWNyB47XCyzesJjwpiwsRkvl/AA5oVBvJZPw2smGv1wIvUyi/Y6X3H04AJnqZQGkQd5ChvAM/J1ZIyAmbyD5kw5hzdozY9ItIJwcBnDiQa04CYhEHsXjtscce+8rf/e53f6w7IOEs56Q8+e7hDOtLGCQgUKSj4of/yFOPv63mRqbgrNsqDXNfPPqn0IZ7+WyDjAkPOmi/c7P5hvahVYPMig4AALDpuEgk/FFzh/5KZWqdxfqXX7qz+5TuA0buHlnbxBOYUioZ/50Nw33LGbkaOvTMpjik7tyjzrlfEMmdQ7lV91Z41ZXl/3Hppe+Yn03/4Y1jhcL5IF5CkAiaccMUgJn+Jhrt+lA+v+oq3/GTyfglcG5p8anOfx3zrT5XYoAZIrLJQn7eEUSW7fmqV/z0lu/fsqbaeEuXLj1kzZrV58DSuWJ4CYuDzyfSqZAIdpk/90cAovXESSQSHydX6GiXaRYHArPBypWD36h4bDhZidw62yca3wKRiHbdZZ09yNe1oLidk61zOPGmm259tO6AqiVmxRRAWSra8wOQvMNa26T1AAygdIEsDrNuOmif/Q+/6fbbn21C41Pq6em6NML0tUZ3hpgZVmAd6Ce77LLr15ctWzbiI25fKv7RQmgvZeAgH2lJKyHm1enciNcno6VLTzn6xedXP0QCbuT0C5WKowjRCBnzlaGhrLdkVclo9xcA+QiAPQA0pBM5vv/aBOCg47jBwcHf1RorHo8Osg1TAr95/oW4tGDRbSxtCqviykkQMJhpXjqdqbjbKpmI3gVrT/G6BTAIBofSub5UIvZLuLA4MuIlOEOICk4Kx+XzDz7mJ6hqhVnVAQCAZKzrUQiObM5TQHmuVAAqzznyxgOjiVfcdNVV0yrB6Uust/fEiCs8YAuFrdJa+FS+6QDy+aHcqoYlRUqlEl+yY6MXM9G8Rn6ehhkURC4ZGMrscJ52OmKxk//IgsMbde8vd3CZacUuu+/y3jvuWP54Y1oCFiZ6riqE9oONqE1UHhURYjgyd+dy+SmT1lQSi/asZbG7FeP56QAwM0KHYTC+msuN/LTugFNIxLp/SSJn+ewAgPlKDjrEFcYuJhfCebjcF9MLk410zjthYGDg9/WfqWqlWdcBeMcHPrDvH+4f+Qs8lrOsVinrFwTYZOftdnh++fKmjwSkol3rnMiujYrPQQRW5Ef/mcmd39OUURZBPBobNuS6GzMcXcoFxub+bG64y0fEVDx6IwTnO+c/CY0Ql3Yw4AGg43253OCw90YmsWhR6rSxzWM/J3HzGrGYsdyp3Hu/A3a79dZbX57u6095zcLXbtq48W7r8TvCQQQOuCqTyf29t6BTSMR6NpCz83yuzBfBb4hwgr8FfwQLKvDc4Njsiuwf/ARVrTSjEwFN5v9++9vPBZHO11jXmk3vxd81mkubNvwRBx5YMfuXT6lo17UgasjNn5hBzKut2MXZbL5JN38AIGTz+R44fIuNt91iW2EmMNHJS5YsOaTeWEuW9J8NovNFGvD1I4IJAhDzZ3O5/MnNuvkDwIoVQ3dmcsPzAXoO5P+yUb5JrX7umctref3mzaOLXWkRqQ/MBszmB824+QOAiAt9loEqFZY6wWen2YFk7tzIiXrznz1mXQcAAAYGBgZNpOOzFFSswNkYIiBn5yUP2P/FpUv792tGk/39/YuF6D2+n5JlS03ve9K5kb2y2ZH7vDZQpaHhkX8gE1xhPHcCCATnijeO9etfvqzeeBtfXv8tCQve58uLZVV5DcgckU5nv+Q1+DSk8yOvEOJnG7HGRkRQsPaMWl7rnO0B4GXtDxEjFFk+MJR+V93BqtDf338cEe/mO66glLrcAw4imD937sdWrMhUVVpYzQyzsgMAAJlM7l8EtGzLfHXjTRwWZQCw4dx1qzf+8XOXXNLwMrRjG9d9qxFTHkEQgI35Xjqbb3kBncGhzCUC+qbxdFErKs1BF7cfnllPpFS0+1OG6dDiIJDHz4IZwuaxbG54j6Ghofq3ytUpkxveH/Bzs52o2Nk0B8f7+uLTfa0TeLmBChGEGQJ+q4941di8efP8Rl2jvKz4DyIgYz6xbMXAtzyckmojs7YDAACZTHYJsck3e1NQceldcXGgs+G8uwbu+3Uj21u4sPdjRHxcI546OzvnfHkgnbvQa+A6DGXzHxPmnzEzCPUPmY532kTAkAPPOeOMV9ceC1/wnX++NPXycCaTq/m8GiHo6Hg7lTpiXm9d4hDYsWkXamKGl+9/qd+2Jp/PN239Tqeh15W3vbbHBsYtjDEAmUsHB9M1Tc2o9jarOwAA8M+ZXBzMq5uZJlhKtyZBac+tk+5YtNvLFrnJjI2Oftr7zZ8IofDf3rti4DNeA3swlMm/USB/JvJ3wSQUyyO/sPq5mp78Yj1d/0qEzvG/EA9D0cwgE8mlM/lj6g7m2crBzA1W6J5ylkFvOQ6cg9gwNt2XifOz8LV4mZCnfMSqVhgW9tySEbN91mWXpts+kU6nv97qc1GNMes7AIuJJJMd3ssJVrfmDAhOBAFTVzwW/ZXv6IlE7BMM+EvtiVKK3EjH1fl8/mZvQT1bu37tYrDxOgxdzNZHC2t5rQmCT3ldf1EsWPTwUDoz7eHwZvnGN791Nhsz3uH1opiq+FXTmc4667WvPdxP46VpDUHDqhROxokc2sz2qsFMcKBLB7PD+uQ/i836DkDZXvvudywHkab3sMuXMWctDNwZ8WjXv3mN79yn4Ky3JzBmhrX2ewNDmYu8BGyQ3//+j4/DmJ+V87T7+PlFABGZ9lbAZLT7Sq/FlooL/p7PZNvvyX+iZDK5qRDabxN5zHEoABFFevv6qp7yWLdpbczzCN8cn8EqEdDh7TT4z0QgY76Yzub1yX+W22k6ALfffvuzQuZsNq35kQnFlMHGBJ9I9PV5WVC3cGHq7Uy0l6+LRylN6CPZ4VVtM+e/I0MHZN5IvrekEe2xdOnSaW4HdBcRfD79M+ZFOmtOiNNMuy7Y40qfn4FA4JyDteEHq38Re91p0xGYpo4AADK/je7/AFFhMJ3/XKtPQzXeTtMBAIB0Ov1LcfS3FARodg6k4pJAggsLQGHsrgsuuKDuOUs7OvpxOFuaga3v5yEIRJydv2Dua+s9r6a5iSDEdxWTL/n5PJkI6154en61x/fGuj7GxHPrnYEprxoxTDBB8LVlg4MP1hexOe65557HHLDK3xM4gQCw2Kpz44dWkj6r2yGg//UTrDqRSOSgdrr/i0gkkYgua/V5qMbbqToAAJDJ5282QXA2WjQSABHAWfzuoQcz9YQ5ddGiw4ioy8+8M4GZEeno+M7ddw8+7SFg0xDxl31uCxTnIGZO9avQid/v4zMoFm1iWCePDg6mP1l3wCYiY270d/tHeQ/NSdW+RiYuvqyTdXbzihWZ3/qKVw1nm1uxsyIREOg1vb3Jj7X6VFRj7XQdAAAYGEj/EkR/CzZNKTu7FaLiVieiY1KpRM3DbBtGRz/lnPOT+AQCR/TnlUPNyXrmUzqdXmGde95nTGvDQtUHC+qqgz5x9lyIMH/B/DfUE68V0uns1339FknpP8RJ9XmUReL+cuhjo5dAVUqlEhe3S/XCMgEgNoQNwyvb7dyUXztlBwAAMpn8zcaYDyPoaGq75Qu+tRZSGPt8rXEKNjzT29w/E4K58y71EqwFmGjE1xB0MYkPVZVuMJGI/dDL3vNSDQkH/vU998zMAisEetxPZ7SYvMYEQdWLMZ3ImJ8MgAQG/6XuQNMQhoWNbbTzb4tiNlMkY90z8vuoqrPTdgAAYDCd/c9IR8dVbILyBuCGk23qwvclondNN0Z/KnVcYPhgX51zAT2/8r6VP/YTrfmCILjPZzwG+qs5jkROF6mv3mJ5Bz0bg6dWv/TOOkK1lED85LkgFDtDVZbyeNvb3rZbYMzB3p5UxT3hJ1B1DNFZ4qtMr2elNOBHR6PRf271uajG2Kk7AACwcuXA30fmzPkamaBpbZYXrIkInMgpJ5+cmNYw8tjY5veTp1pHbAwKzrRdsp/pEGMeJ4/rAEgqz8metnDhQeTs3j7KLRMxnFDm2ccf9zqV0UyBCQa8jMLI9Jbn3nDDDeuq+byqQUSA4U1eglXLuq0eCDxuqPTCWYsOln/q7Y0vbvW5KP92+g4AACxfvvKTkSDyvWZ2AsrEWXREwmun9SLD3uqGO3Ebh4dz3/ESrEVWrhz6mc8kPNW8s5vCzR/xdalmJrhwbEbnWWemF1rR7sJE7MP+nv4F7DDtEbl6EFOime3VwjmHsOB+0erzUP5pB6BkxcDghSYSuZqC5k0HAMU1iExIJBKJ3upfI14ShxARmPjWugO1Aa+JYKq4oYShTflqzlm3OTfywH/7itcKy4eyP2rFgrHQWn+FtogwZ/686hcfeuBEIu2+0E5EwGJ3S8a6G1rTRDWfdgAmGBgYuojJXEPcmLrzUyHnwK5Q1SK8ZDL5zuLNzs+ipzAsXFd3oFmGquhNEPHxXhYAEsEYvq/uQG2gmfU2xttkOsnPQsziud+9bMUP6g5WpdP7+w+FYIHv980wv+QznqC4c4kJpy9MJT7uM7ZqLe0AbGMwnXmfAFebJuYJEHFwIudWdawNTyCRmst8yoSLjSNCbuTBO2sKNIs54g2VjiEST/XbCYh0NnXYuVEE9CxRffPY5TUVVGUH14nsW89W3nLpZiEH8VpmurK1Gzbsawx7KdlbJqDRwdzInqDiYmMffYtidVOCtQ6FwtjlfX19VSdpUu1NOwCTyGTzFzmia9g0ZySgmASG0NvbWzkBDUmsWLu+vjZLL59FW3z8PEURgNDZwR0d0xuPequ+aIzBwMDQFV6CtZiDPFnvp1B+GhbIi1W+4hVAHZ/+hBc6635Ta5hadMyJeBm9mIiYCQDY8D8Tsfc0JwSwLYwO+Y2qWkU7AFNIZ4bfZ0FXkwm89tCnIgJYO7a00nFExSHPus+ICAQM1xumffj5jARARxCJ7PAgoj18fSXCMFzjJ1LrkUjd1xMRoDjiLE9W+ZLDgS0jB7UiouJ2jCYqFMITfF5biAji3AAADGWGP+1A3js0pfM9KpGIzehFq6pIOwA7kM3mLwLz702DRwLGn3mcJCsd65zM3fKa+to0Jpg1Nx9/meAIRDvOBW+drfg5TaOtpiaemRkIAHbcCQPwu9JnXp40qIeIIAjMQ3UFmSYieC1iBADMPJ4Wea+D9jsPpZ1NPrcXig1hIB9ZtCh1mregqiW0A1BBOp09VgSPNHKBU3GRjYCZ937ta5ceOdVxixalljBRMP6aOhARyBW+X1eQNrFoUe/fsaf5WyJC6EZ/tcODREa9NAaAmR73FavlPDxAl5e3csDpSse+rzfxluKvZf03N2aGdfa5ugNNg7POa7lnKo7qDZT//2033/YEM3/H1+/GFgIXhhjbPHaj58CqybQDUIV0fuRoAdlGdQHGa9o7iw0bVk853BBuHp3LpaQnUmOHhKSUe44AUEdT6543Srhp40G+JjudCA474agdJuRhIi/V5wiAFXmq7kBtwqGc2ZBqfuIUKaZFto4q5uRnEebynEHNCBAChAEEO1z74Z2nBEZAeaEeAA62et+G0tkPOCcP++icbWkLAAQsbq9UPHqft8Cq6bQDUKXOzsgZXGFq2Icg4DdN9W9kOO785f+dPYhf4zEZzJr/vvq/d5jUxjnnLWMUUf3z5u1jGgV8pkBEEBFEIkHFinwi8nqPRYDAnfyYl2BVCiKRo/2tASjum4h0dt677b88unrNGcbrtas4TuNEICT9iUT3ez0GV000iy4+jbV8IHO3FXyykdkCBUBYKOw51b87Rwd7a4yASND8zIeNIE5O9jECUJqTH6h8nL/uk8cEhi3HxClfuRGslYpTAGL9raBzTrD7/N2f9RWvujZ9Zq8UEDOWL1++3ff3pSee+FNo3Td9pcuWCeM7Yi0YdM1+++23j5fgqqm0AzANmUzuaw7irfLcZGSHz+bySl/tEIDQbp7x4wCnnHJKDwfmFT5+ECIgYiIVt0b6/PzFVyL7WaI4kC2FdHrokYrHsvT5mvohyEu333570zoA/f0LP+yzA0AArLVT5q/IZPMfg4jHQkfFW4eIQJzDIQcftMxfbNUs2gGYpv33P/DvhBv35LzDD8TZA8t9b6o1EVBpjtYJQMQzfg3Ahg0vf7CeC+lWiynZoHPX3SoubPI1bCsAAgqmXPQ540woUFXrIlUiggOtrWZe3zlYGc8bUPuaGBDBEr9cU4AajW3eNMY+nyOK2UF3uHZll90XvJO87GgSbNl7QRAnMCTH9iXjV3oIrppIOwDT9Itf/OIxAS1rSL0AEVS4lc0TkZoXWAEYv66KCAqCt9QeqD2Ic2/zUU619AT14p133vlg/WdVPSfuoGa21ygLU/G3sqdqgCBaX+mwz4mAmQ6ptzNW/F0iCPBAXYGmSYDTvK7DEYDMjjsxd921bBBM1/pJd7D1yTtr4Zz9WFdX10IPwVWTaAegBsbgO14udpPGnjoHsTFmX59tORs2P3m7R8lk/FIS6ax3RWMxHSzBGNPUDGelm5fXz7RVwjD08mUiZsDJqkrHfYGqTxdcsU0AgTHNnYoR6fC5Erd0ORqpdFw6nX+vMD/TiAcYcQ6dAf3Ue2DVMNoBqMHQUPbHAtjKR04TEZjp0an+2dsOAAAQgQiqrkDYjsjZS3xtpWImMPPPq2rX48WTiff5SZtXg6sGk3mdj++nOAcTCTorHZdIxN7mYyqm2PkDnLjb6g42HcTH+f7UCZW3TgJA55yON3AQqXkr8VREBBDZNxnrud1rYNUwM7IDsLC3913JZPz6Vp4DCf7i7dendCUgIjhHKyY7pC+V+OyWC179LQuAwATH1h2oRRYmej4Mkf18VYJzTl4eGMpWVRlRhLylhhQRfD0araoSZDsT5zp8xCFmyFjhZxUPdHTEVq+r8Wm6PIoQBJF5NQWolcgefpcAMCC2qk7M8uWDmdC667lBVU+Z5My+VPSjDQmuvJpRHYDje3pe3RvvHgzHNl5P4ejbWnkuAnnS1zAawxWrbYGw6667Tjr/KeHYJhJBnSsAtlo8KDZEf2/yi3WEa5nQuc+Lh1XU5aRIjiNVPf0DgIMM+3p4EnEQljf4idY6DuJlMaMA4DmdcysdR4xXeaiIUVoBQBgYGGpabvtlIiCxu/gc0RNicGRu1Z2YXC7/HifyPNWdU3Sb8xApVQ20V2DBAq0a2OZmRAfgtNNOOzGVjN23W0CPWOtSxeRfJkilYpe17qxkh/nip4sIgMiaO+6448nJ/53P8ToFgOI+5NHR0XO8Bm2CWKz7KoD28vVuMDP23nvvL1R9PFHBW/VBERgg+bllM3wagPA3vnIADAykr6p0nBM5zNcUOjexMv4zigAAHVtJREFU9DcAfKov3kPsN6GIczYcGBiY3vy7lbOJTUNyghGRiR/1qvsaEFp51PYdgFQy+r2X17z4gIRhvw23JBpzIrBh+PpWnReT6fNeJZBw/1T/FFo31oh1h2z4xP7+04+ofGR7WJRKLTVEH/Tx9A+U5vPFDd92221V75FmMlkvjZeJ4Fef7Lnaa8wmE5G6t5QWy1xX+SUX7FZve0Cp9kNYaGoGwAj4YIjfJ2/Q9KelsiMjWUd8HZWmAnwWDIITkOCEZDw2K0pdz1Zt2gEQ9KYS1yajXSKhvQDObpU3W4p7hREQR7u7u1tSkcqKnznPsmIWOp4y+QkzndSItWLiHEZHV1d84moHy0QwFo7ePHG/eb2YCIGJ/HBaL5LwGV8LAUuJb2CILvQSsAVO6uvbJzCm7uFeJoJY92R1R8txPqYAAICICl4CVck5WeLzd5mIwKCaKhlmsvkLHOiZBuwJAJyFc/bj/f39i72HV160XQcgFeu5LN7T/bKEhfeISGmr1DZ9UwFIHJxz6Ajoa80+x1P6+3sC5v19xStufSZEIsGUi3icc7s0IgOhFIegT+3vjfV4D+7ZP/Z03U8inb4unsXKf/bZFensN6fzusHcqq/5SqsKUDGZnQj1JWM/8RS0qfaZO3d3LyMyxRzL66o6VJynPawCB/qDl1BVCsOwUHz89/f7bCE1JzLq6JzzRg7KZYP9YghGN67/seewypO26QDE4/FLE9HulwH3ZUOyy8TsbtvW+y4vXCltOzkhlWpuXeoNG+vLPrc9gnNu/cqVQ5N2APr7+xPM3OF9yqHEWYvNY4WbGxLck95Ez2+CgE/y+R4UO12Ry2t5rbPuaa8pgcXBWfum/v7Ucd6CenbMMYlJ61S8vHbNBb72tBNTxVTMi3t738xEgZf6DwCYjdf1PJUYptOL32OP32U2w7W+duXKlUNW3HWNWA/gnAMT9lmYjP0/z6GVBy3vAKRisYXJROxFhvsaxO3inEzv91oELhz9j4ad4KTo3c5nKU8CIoGZMvnJ6OhoQ1fTiggC5oOS8Z7vNbKdWiUTsQfEyfHWeux0EcER/3kgnf96LS8XcRWL1UyXcw5jGzdXLEbUCqlU/D277WrvnOzfODBeyvIQAQSpmI9/89jYRsBblwOBMTtMoeubczLqM16pG7q6nhiZ7MgFFljtO0EQEcE6B+fc65J9yQu8Bld1a1kHoL+/77xEvOdBkFsBG+4pdssCv+nd/wWG6FXJWNdX/Z/l9lKx7hzg2OdgGREDTDdN/e9ybKPXiFvrwMAFC5PRzze4qWlJxqMPwtkT/Y64AGADNpGay5hGgsh9DUqjuCAZ7WpuXfoKFi9MfdOIXEugSZ+UxTo/I3ACGA4er3icob8VT4voiAnhaOGXHkJVjY05yVcRIwAAAXM75uTrDtMx9w1BA6qdltJsQ0ZHv3X2qace5r0BVbNWdADmp5KJB0dHx26Gcyc4W1zgR3XscC/GwCdPWbjwLM/nupW+ePRTDES9/vICEJENKwdzU49iODnOd5uTsdZCBJ/rSyROaXhjFfSecsrfxGM9T8LZE7zXzCWCCIaGhoYmfaKtxspM7j8a8YmICJgolYp1t0UnIJFIXDU6NvZRGxbAsA9PdowV62URHTGDyCyvdJxzzufcC3aZN69i7YF2RsRYtmJF3dn3MgMDy5242xpV7ZSB+S+sXd3UzpbasaZ1AM4///y9k9Gu21OxrvUSjp2AsIDyTU3Gb/+1ffHKF+J1mzZUlcmtFqnYyR8Xcf8aOuctdUZ521MIc/0Oj3OFiolRfAnDEM4V7lqUjP9Ds9rcVm8y+g9u7Ut/YmcPEfG11rtMYIxBNpevOw2ypeBuacAWKlfc5ZBKxqMt6wS8/e1v3z8V6/6dcWMfFGsBYpAJJl0sFyFK1bo2o5yOlgAUBDBz5lQcjg8IMV8TABa05q4VK5q2CLC/f+EHuLSLxfm8/MrnvIQZyg6/zhGvbUQXwBWvd8ekErFpLbpVjdO0DsATf/zD0wDOFFde2e9X8ckJ+yRiPc/5jr0oGfs+wFdYj0+iIgJmBhvG7rsfusN5aGLj7YJXDeccrLPfSMS7v9O0RgEAglhP96/FyTdEnGlIghI2CK37ko9YQRB8m7zWdN2iOOUhqVgs+mijFn9OJRaLffmxRx9+QkSOcU4gEDARTMT9aopz9ZEBCICsvvfee/9a6VDn3Fwfvw4EgCBNffoPw8KW0RJPXx1n3ZOgqvNYVUTMH6KgMSXPnXVwIh9dvHhxf0MaUNPStA4AgXJAed9zg4iAxO0Tj3Y/t2hRamm94XoWLjwoFev+gw0L7/SVeKZsfJhNcMddd930Pzs6VpxrzG/jDlhrwYL3J2M9f4hGTzyp0e0l492fScV6xDBOd9Y2KjsZHPFD2fzIZ33EGxoa+plzUtoN4HFUuvzf1sKIOzIR6xldlEr8k7cGprCot/fv4j1dDwckl7G4OeXRFwLBieCAA1613eK1/t7eU8nDD1+c0+eqFscR0aFevh/FvANTJt9qBGfdYt8dOmIa8xkvk8ndGDq5DWzgf2NgMT/AhvXr/ttzYFWD5nUADC8vXiYbW4FWRMCQfUY3jd7W15e8ptY4vbHodZHRjX8SkSOcNOb5mwgYc4WKRTNMEBzYioJxzjlA3BEdHLm/N97zi9NPP73LdxvxaPSLiWjXSyT4onMO5SQ/jfiWCESy2fzxPmMa4h8XOwA+P6AJP71YsLiOMCz8cyLW81Rvb/KdHhsCAPT2Js6OxXpWhYXNNzDhqG2n9ItpCvDMjTfe+NJ2L3aFBT5WjhMRQFJVhkV/ORgAYxr0qDsFgezqMx4zQyAZnzEBIJcbfp0A63xXDAQAiCDCtH+sp6uttx7vDJrWAUins5fB+4VycqX8AAjHxt4bj3a/lIpHv3PmmYtfWel1/QtTb09Eu++N95xccGLfLcXtK3Dk/20iIoDN3fn8gxXTkPoefZiOYnEPC+fc69etfn4kGete3pvo+XA9MRcmYh9JxroHE7GoMMlnILK7tc5vKtJtsDHo7Oy4yHfcdDZ3MQDbiC5L+f0QAOIEcPZgF4bfT0S7/ieRiH35vNNPrzkZ1ZL+3sXJaM+/J6Pd61wY3sriTt6SeGvrNQ1UTNAz6dP5mN8FqhUD9fcmzvaZBjp07hdeglVJnDt4vP1a101M+K45AZiChvzidEQ6P2SCoCFTttZaGKbzent7/957cFW1Jg8ty71EvKQZc5oEKeajBnYXJ+9f++K696di3Wuc0P1CZJgIDgIRcQbuCOfkgMLoKDEEDthyISzmivd8boADyWGHvvKCocyOd+8kk/FLyc8i67qMvx8ii0RoUSLW/U0nyDDRAAfB2qGh9L9MdhPsXbz42HDj+jcYoiNDJ682YqNOXHEBqITjV3yirS9sHs8cZCKwwNVDA9nvNqABBIH5Shji0747ahPfj/LUmdgQBBwqIpc9/dKLl8WiPY8QcxaQx+fMmffA8uXLf7ltFICQSsU/ysSHucJol3PSNbp5dBciKY7y2C1HbttumSOe4ulcjizn6qzn8yMiiPAdlY4rFMKTfXUUBTKtCnp+2qRDpHQ9qfk9m/gcRQRLcqu3E5xg5eDgDdFoz7sixpzqfRsuig82Lhz9Rv+bPvT95TddNaN3YsxUTe0AhJa+Ggl4CSbs+W+W0hd4dxAtpuIAARjl4c3ir2EjvuSTEWNAgi/86Ec/qpiBTESonerEld8viLAhSgFISWEMqXj0n4Ge7Yq5yIZ1MCg+wRpsGVFoGg7gBMuzubz3p/+yFUO5zyRiPRcC2K9RbUwkAGBDEAhMOArOHQUiFDatR2+8B1sPyccg0gOEFlYK4ztPpvsZBIY7Jz8ZOcTLyh4RdM6JRCod5pyb72vdJRHhW/8+8I2ensZOS27VJjDH5zgoESHgyu9brfL54dPi0e5NBNRd7GlSIsHon3LLAEQbEl/tUFPzAORGRu601j3ZqH2mU9lqxKE0PYDycGeTJ9eFGAJ6JJMbrm7ZrpOeJm4AmBYRgTgHEYGzFs5a2DDc6o8rTaNMHF5uGmKA+cVsLv+aRjc1d07nP7DHuenqyPj7Wp6uspN9BtbCOTv+/k/3cyhlc7tl0jMgOgTwMAFChJUrBytm9CTmXh8LiYsdIUYzb/6pVOokZva6pdc551YODTU0174Q3luuXux7mk6cA4v09CViNaXkVvVpeiIgEwmubnYHYFtCtNWfZjKGkc3mj676BUR7N3MLYLUEtN37WM2fZikuKsOaTCa7dzPaW7Zi8Ccichc3aFvgtrZkztiSQKvi+1/HbdqYyX8w56Sj2J+o7+eutvMkhDletgASwTlbVeEhXyIR2sd3XguiBixQ2kYuN3KjiPs1e/79LV8PxFk4F16yaNGipNcGVEVN7wAMprNfAaT5cwATkMhWf5olCAIYwXum8xqGHN2KHQCVEGS797GaP005NyJY0EuZ3MgejdlPMLl0ftVpjswm3/nUJyPbdAGA7b/X2/2p8dYjIvj+YObGbf/+nHPO2bXD8D7F86kNiwOIMObk6WqOJycn19rWxE9FmOCAP9cYqiZ2bOwcmlDKut41L6XdJxUXEfuQzo2c6SDrfO54KV8PpFQRs7B5ve4KaLKW1AJgMp82xrSi6ZYhJliRb6/M5q+fzuucc5NWYFOTIyII8ZpcfqQl75vAneYE0oxOQLMQEV5FtN0ugCAM9/S48PHF6g6TuheQEAgQQESeqjfWdBTG7CbfMQl4wXfMqXRGOj9NDckNUF6HRfvFY7EbvAdXU2pJB2Agm/9qKPgTEW23aGxWMgw2kbvS2eEPTudlZ5xxxglE1NnEh9gZaasdG2xeyuSGG1o9cUey2ZEBY8yXUS6t2o7DN9NAAMTJk5P923Orn7uw3nUdUmoj4MoV+fqX9J9NRHUveCv3zwj0x3pjTUdgzKnekwAZ4z3z6VSWD2X+XcArGtW5FefALH/Xl9Sqgc3SsmqAoZULyZjmLwxrsuJcND08mM5Ou2LaunWr9ytegWf3e1QvIoIxBo6DB/4lk2v5iEk6m/+sCcxPDRvM+JGA4p1y0qdzEhqt95tJpTasuN9WOnbDxg2hzweGIDAvewtWBSfO+Tx/IoIrhA94C1iFoWyuH6BCQ/IDAZAwRCHc3OTy7juvlnUARkZG7hLnftL8ldPNIaBixjLmhzOZ4WNqicFCR5A0an/87EFsIET3ZbO5kxe3yQ13cDDzJoByxDN/qouZJ83Pb4Ez649eWr9A9JdKR0bInFXPVt3xzooImA3AHc2dcyZ0+Xjg2TJ3DgQRrriV2LdIhD9E3Jgd5ASAQXMT8Z4HG9KA2kpL777p3MhbBFjTHpdsv8gYCPHD6WxtN38AEBtGxXMSotminH3fRCKAiXxxKJNf3Opz2tZQLh8XptxM7uRSMWHWpBdjJ1vm42vd4SHlNkykYmlmsW4+UPsM9HjlwWI5aHR2clN/uXxd58YXc7LBQDp/raewVVs5lL/GgR5ozPRtcWs2i5yQSMQua0ADaoKWX5lMx9jh3Nx03A1HJoB18p1MNl/zzR8AnN78p0TMEKJnbcDxdDrtpxZqA2Qy+TgFkTuZeYZO5Qg6OjqmOvFjvDzRAth1zpyK1yIhOb58TvUQAE7c2nvvXbmqrkDT0N+XOMN3TALw8Y9f3LRS4RNlsrmTpSGjWzSebMzZwpf7+hJaNbCBWt4BGBj47UuG+MNmBj8llQkRYAKwMf+Vzw9/oP6I5OXLXy49PBsQEYIgAMjclsmv2j+zMpNr9TlVMjiUOd0K/iXo6Cjn1Z8xiBgOwaRzsiJS93oLAuCsXX3PPfdUrMpHwF4++lClomQNy543mXCscICvWMVRE8Ba99SVV17pfWdBtdjwP1IQ8TpFWY4lIjAg2LHCdttPlT9tcVdYkc7+JxFdNJO3BhZvsLQmiHSeNziU+ZCPmAI/mQpNcbHlf8z0ThYzQwTPmyA4byibe12rz2c6svmRy2D4NURUMG2yTqFau3V0bPeUuWTJkhR7yAwjAMhwVTdjJ9jD2x50YLmXQNW2Z4KTfC14Lr/pxNThJWCNhoayXxVxw/B6XSmuAgBK1z/C38Tj8aYWbNqZtM0dYSA7fLUD/b0xpu0XTm+dfgWgIAJHdFs2P7LHwMCAty9rJNJxmKC+RYBEgBUZTedXfSS0wWIwbyAuL+5uZpqc2hCKuesdBygIvpYZXrXv8oH0jLwgDAxklg/lRjqEgxVkDHwmVfGpPEZBRHDi/nrbPfc8se0xo6Mb9xOZcDOq8eZWbAM7rohVEmFaAACuxssWjW8XBYSaWwfFOXuQr1hS+s1lpqrKJzfSQQcfdrqAPCZ2c6U/AARw1oLFvn5hKvERf22osrbpAABAOpu/KhJEPkDEMyI/ABEDxBsE8oZMdtj7E+l4wZYa34ry/YWApwAgO5K9L5Mb2UUQXC9EAJOPMi7ejXewiAATAQWRn+dyecrnRz7Z6nPzIZ3N9Xd0dH7WibxUzrHejoppayf/8ongEGBCUbo6vkcEjFU65owzznj1eNKh+gsPIMJmuN4o0yHAfj47e0QEZ23F963RbrrpptVE+EyjRm8JBHEWhbBw+ee+9a3dGtLITqytOgAAcN9g+jvBnPmHO+I/YPwpqd1QcesZ87WZ/MgumUz+575bWLSo70N1J1kpLxZms2Hi32dy+ffsf8AhxzhghYkEbfEeT/xZqVgwCWTMzzrmzDt+KJ19QwtPrSGWrxz8Unb4/j0FfKNjU9wy2mLl74GgmKCLgwjIBL+c7FhrrbfqbYEJhiods37dmrf4XETprG1aAh0AEJFX+V4D2tnZeZffiLXJZvP/GoLub+TQLYl03PnDH9zesAZ2Uq2/6kxixYoV/5PNDR9pgo4rpE1GA4ioOM/PBhIEPxnKjVA6m39vo9orFApeVvcSEcTa7RbK/fznP384m1vVz4E5kQhpZgYzN31KoPzZGmNgjAGIXjBB5NrM8P00lMm/cfny5Q81+ZSaKp3NvS2XGyYBX8/GtOQzKCsvFiVmkIms3H3PvY9Jp7MXTnYsEXbx8URLxYZfqnSctZb93GAEzIQD9z+gqdNIrhHJoa1d7ztkrbLZfBeIS5MTtdedmEoxVbD0LkxG/81r4J1cW3YAygYHhy7Ze9/5+xDTnczbdwQm+4XatkhKNX+mMr7XnBkC2UREPzro0jxlMvm3eP1BJ+GcPX7CD1UzAcAmmLKW98qV2d8M5ValOoPOI4j5BgG9zOxv5GWqOBPTQAuxtc7dZsPwbZn8qn1WprMN61i1q0wu/57BTJ4g+Edi/nNgDJh3nCp72p/QZI+gxUyVCCIRGGOeNCb4Ujo3QkOZ7KLbb7/94SljOUmVP0MmQnnajqf5h0yAAw/Y946Kpw46i6iYXIuIp90Ol17LHIBNgB/fcsuT0337arVwyZKuSKRjj1ren0n/MAPEuO/UM37UrJ+hGiLyfziIgEojWl5+1gl/AMA594ne3liixT/qrNH6R+sqvelNbzrg6f998gpxci4gHSJbVshPvKzVsmBufNFT+f8zwxFDRMQQDYu4K9O5kf+u80eYlng8ejdZ+9pyl6a2hYACYwxsZO5rMgMDVa967u1NvMuNjZ1OxGcKZPdiqNK7PMl7vuNTkHJpXgDFmw2Y4Kz9i2EzHATBD1YMZrQK2DbOOmvJAWtf2vCZQiE8nSCHMBGVp0mKT0NF1X4OxY9gy3MZM8NZu1mMeSgSRJatHExPa33F60577bkmEqwvjIXHiEhNDxIiQvMW7H/LzTffuN0iw22dddZZxxUKm18N0HwiGArt7kRU9deQSDikyGORSOQ5Y+atvfXWmx6t5ZxrteS00xbNIbeHdfaVLFRzgg8iYQnmPFQoFObefffdt/g8Rx/OfP3rjxfn5qCw+UCx4WH1/KyTEZHIaIDbl92x7Hc+4+6sZkwHYJwI4onE60XsuxhYwkwLxMn4ljmaRr3tLU+gBAKBmOCcPCPO/Qpmzp0HXzL445ve3Jq3KB7rfohEjoXU3gEgAGwYCCJLBwczv6rlPJL9yaMw5s6TsHA0QD1s+GiAMLEDNmX7pSfYMLTPENE6iL0HJngoCDpzAwMDI7Wcz87oiis+PvcXNw2+yQFLrHVxEdnVBOYAcQInU38zyln2StNAmwX4H8D9tiPoeB7kblgxlE838+dQSrWXmdcBmEQqFf+otbabBHsRJAZQpxMLgFxggt2ltF/JWSsA1hGBADbiXJaZCmL4YaLIb4aGhq5r9c9SFo/1bCLn5tQ3AgAAGM0M3z/lFECtlongst7kxQAKADAxR3vAARnmTcsHBr7ru121tYWp1EesC2E4QMFtvRsrCILIwMDQFS06NaVUm5sVHYAdOf3002ObN69n55iPOOKIP1x33XUVy462moggHusuMBDUMwIAAMw8NpQb6fR8ikoppWa4Wd8BmIl64/FTBfZOZ23lg3egmHaWRjL5kR5Pp6aUUmqWaOtdADurIMJ7+9rzTEzrvARSSik1q2gHoA3ZQniKx6QnTa8XrpRSqv21bx7SnZgV8ZbiMwh4VifSUUopVRvtALQhgSzxMQJAROiIdD7t4ZSUUkrNMjoF0IZIxHnJxMeMe+5beUP9gZRSSs022gFoQ0R0lI/a4dbWuY1AKaXUrKVTAG3Ix9M/EQEiFVOsKqWU2jnpCECb6e9f+G4vOwBEQMQ6AqCUUmpSOgLQZgqjo3t46QAQASSD9QdSSik1G+kIQJshcUf6ygBgiCOeQimllJpltAPQZpxzR/iIQ0QQop/6iKWUUmr20Q5A+1ngIwgBYOe3FrdSSqnZQzsA7Yb4OB9bAJ2IrLjuurs8nJFSSqlZSDsAbUacrfkzkQnbBx2ZkI491ltKYaWUUrOLdgDayMJk9LXGmM564xARRNwffZyTUkqp2Um3AbYRZ+0GgYcUwAAAetZTIKWUUrOQjgC0EUfBu3zFYkN/9RVLKaXU7KMdgDbiYK1I7WMAE1/JbFb5OSullFKzkXYA2giBXwMA9ewCEBCICMz60SqllJqa3iXaiIgjEQFx7esAiIqLAAcGhv7N46kppZSaZbQD0FboGCIANQwAUOkPABh9+ldKKVWB7gJoI0T0LAlvAAmolpUARCCArRPdAaCUUkoppZRSSimllFJKKaWUUkoppZRSSimllFJKKaWUUkoppZRSSimllFJKKaWUUkoppZRSSimllFJKKaWUUkoppZRSSimllFJKKaWUUkoppZRSSimllFJKKaWUUkoppZRSSimllFJKKaWUUkoppZRSSimllFJKKaWUUkoppZRSSimllFJKKaWUUkoppZRSSimllFJKKaWUUkoppZRSSimllFJKKaWUUkoppZRSSimllFJKKaWUUkoppZRSSimllFJKKaWUUkoppZRSSimllFJKKaWUUkoppZRSSimllFJKKaWUUkoppZRSSimllFJKKaWUUkoppZRSSimllFJKKaWUUkoppZRSSimllFJKKaWUUkoppZRSSimllFJKKaWUUkoppZRSSimllFJKKaWUUkoppZRSSimllFJKKaWUUkoppZRSSimllFJKKaWUUkoppZRSSimllFJKKaWUUkoppZRSSimllFJKKaWUUkoppZRSSimllFJKKaWUUkoppZRSSimllFJKKaWUUkoppZRSSimllFJKKaWUUkoppZRSSimllFJKKaWUUkoppZRSSimllFJKKaWUUkoppZRSSimllFJKKaWUUkoppZRSSimllFJKKaWUUkoppZRSSimllFJKKaWUUkoppZRSSimllFJKKaWUUkoppZRSSimllFJKKaWUUkoppZRSSimllFJKKaWUUkoppZRSSimllFJKKaWUUkoppZRSSimllFJKKaWUUkoppZRSSimllFJKKaWUUkoppZRSSimllFJKKaWUUkoppZRSSimllFJKKaWUUkoppZRSSimllFJKKaWUUkoppZRSSimllFJKKaWUUkoppZRSSimllFJKKaWUUkoppZRSSimllFJKKaWUUkoppZRSSimllFJKKaWUUqom/x8IwlcOHlgR+QAAAABJRU5ErkJggg==;" vertex="1" parent="1">
          <mxGeometry x="393" y="281" width="64" height="64" as="geometry" />
        </mxCell>
        <mxCell id="Mo0A9-6o7HakSVzytzav-27" value="Pipeline" style="rounded=1;whiteSpace=wrap;html=1;fillColor=#dae8fc;strokeColor=#6c8ebf;" vertex="1" parent="1">
          <mxGeometry x="28" y="570" width="802" height="60" as="geometry" />
        </mxCell>
        <mxCell id="Mo0A9-6o7HakSVzytzav-29" value="" style="outlineConnect=0;fontColor=#232F3E;gradientColor=none;fillColor=#3334B9;strokeColor=none;dashed=0;verticalLabelPosition=bottom;verticalAlign=top;align=center;html=1;fontSize=12;fontStyle=0;aspect=fixed;pointerEvents=1;shape=mxgraph.aws4.rds_postgresql_instance;" vertex="1" parent="1">
          <mxGeometry x="740" y="640" width="78" height="78" as="geometry" />
        </mxCell>
      </root>
    </mxGraphModel>
  </diagram>
</mxfile>
